<svg width="79" height="24" viewBox="0 0 79 24" fill="none" xmlns="http://www.w3.org/2000/svg">
<circle cx="11" cy="12" r="11" fill="#3DBAA2"/>
<path fill-rule="evenodd" clip-rule="evenodd" d="M12.3212 8.85605V10.4827C15.3414 10.6222 17.6108 11.221 17.6108 11.9381C17.6108 12.6552 15.3414 13.254 12.3212 13.3929V18.6069H9.63099V13.3942C6.60599 13.2547 4.33105 12.6559 4.33105 11.9381C4.33105 11.2204 6.60599 10.6209 9.63099 10.482V8.85605H5.90887V6.37555H16.0433V8.85605H12.3212ZM12.3212 12.9494V12.9508C14.9887 12.8326 16.979 12.3685 16.979 11.8116C16.979 11.2561 14.9887 10.7907 12.3212 10.6717V12.4888C12.2435 12.4957 11.8276 12.5301 10.9978 12.5301C10.3061 12.5301 9.80564 12.5005 9.63102 12.4881V10.6704C6.95802 10.79 4.96289 11.2554 4.96289 11.8116C4.96289 12.3685 6.95802 12.8339 9.63102 12.9515V12.9494C9.80289 12.9577 10.2917 12.9783 10.9861 12.9783C11.8558 12.9783 12.2456 12.9549 12.3212 12.9494Z" fill="white"/>
<rect x="13.6543" y="0.625" width="22.75" height="22.75" rx="11.375" stroke="#0C0B14" stroke-width="0.75"/>
<path d="M25.0293 23C31.1255 23 36.0293 18.0962 36.0293 12C36.0293 5.9038 31.1255 1 25.0293 1C18.9331 1 14.0293 5.9038 14.0293 12C14.0293 18.0962 18.9331 23 25.0293 23Z" fill="#2775CA"/>
<path d="M28.0543 13.7413C28.0543 12.1375 27.0918 11.5875 25.1668 11.3576C23.7918 11.1739 23.5168 10.8076 23.5168 10.1663C23.5168 9.52501 23.9755 9.11251 24.8918 9.11251C25.7168 9.11251 26.1755 9.38751 26.4043 10.075C26.4505 10.2125 26.588 10.3038 26.7255 10.3038H27.4592C27.6429 10.3038 27.7804 10.1663 27.7804 9.98261V9.93641C27.5967 8.92771 26.7717 8.14891 25.7179 8.05761V6.95761C25.7179 6.77391 25.5804 6.63641 25.3516 6.59131H24.6641C24.4804 6.59131 24.3429 6.72881 24.2978 6.95761V8.01141C22.9228 8.19511 22.0516 9.11141 22.0516 10.2576C22.0516 11.7701 22.9679 12.3663 24.8929 12.5951C26.1766 12.8239 26.5891 13.0989 26.5891 13.8326C26.5891 14.5663 25.9478 15.0701 25.0766 15.0701C23.8853 15.0701 23.4728 14.5663 23.3353 13.8788C23.2891 13.6951 23.1516 13.6038 23.0141 13.6038H22.2353C22.0516 13.6038 21.9141 13.7413 21.9141 13.925V13.9712C22.0978 15.1174 22.8304 15.9424 24.3429 16.1712V17.2712C24.3429 17.4549 24.4804 17.5924 24.7092 17.6375H25.3967C25.5804 17.6375 25.7179 17.5 25.763 17.2712V16.1712C27.1369 15.9413 28.0543 14.9788 28.0543 13.7413Z" fill="white"/>
<path d="M22.692 18.5538C19.117 17.2701 17.2833 13.2826 18.6132 9.75379C19.3007 7.82879 20.8132 6.36248 22.692 5.67498C22.8757 5.58368 22.967 5.44618 22.967 5.21628V4.57498C22.967 4.39128 22.8757 4.25378 22.692 4.20868C22.6458 4.20868 22.5545 4.20868 22.5083 4.25488C18.1545 5.62988 15.7708 10.2587 17.1458 14.6136C17.9708 17.1799 19.942 19.1511 22.5083 19.9761C22.692 20.0674 22.8746 19.9761 22.9208 19.7924C22.967 19.7462 22.967 19.7011 22.967 19.6087V18.9674C22.967 18.8288 22.8295 18.6462 22.692 18.5538ZM27.5496 4.25378C27.3659 4.16248 27.1833 4.25378 27.1371 4.43748C27.0909 4.48368 27.0909 4.52878 27.0909 4.62118V5.26248C27.0909 5.44618 27.2284 5.62878 27.3659 5.72118C30.9409 7.00488 32.7746 10.9924 31.4447 14.5212C30.7572 16.4462 29.2447 17.9125 27.3659 18.6C27.1822 18.6913 27.0909 18.8288 27.0909 19.0587V19.7C27.0909 19.8837 27.1822 20.0212 27.3659 20.0663C27.4121 20.0663 27.5034 20.0663 27.5496 20.0201C31.9034 18.6451 34.2871 14.0163 32.9121 9.66139C32.0871 7.04998 30.0708 5.07878 27.5496 4.25378Z" fill="white"/>
<g clip-path="url(#clip0_58_355)">
<path d="M39.0576 1C45.1333 1 50.0576 5.9253 50.0576 12C50.0576 18.0757 45.1333 23 39.0576 23C32.9829 23 28.0576 18.0752 28.0576 12C28.0576 5.9253 32.9829 1 39.0576 1Z" fill="#F5AC37"/>
<path d="M39.4623 12.7768H43.6421C43.7312 12.7768 43.7733 12.7768 43.7797 12.6599C43.8139 12.2347 43.8139 11.807 43.7797 11.3813C43.7797 11.2987 43.7387 11.2645 43.6491 11.2645H35.3305C35.2275 11.2645 35.1998 11.2987 35.1998 11.3952V12.6188C35.1998 12.7768 35.1998 12.7768 35.3647 12.7768H39.4623ZM43.313 9.83444C43.3248 9.80326 43.3248 9.7691 43.313 9.73841C43.2432 9.58645 43.1605 9.44141 43.0645 9.30528C42.9199 9.07263 42.7496 8.85829 42.5556 8.66574C42.464 8.54941 42.3581 8.44497 42.2393 8.35636C41.6443 7.84997 40.9369 7.49159 40.1766 7.3114C39.793 7.22527 39.4009 7.18419 39.0079 7.18765H35.3162C35.2132 7.18765 35.1993 7.22874 35.1993 7.31833V9.75871C35.1993 9.86167 35.1993 9.88939 35.33 9.88939H43.2635C43.2635 9.88939 43.3323 9.87553 43.3461 9.83444H43.3125H43.313ZM43.313 14.2068C43.1961 14.194 43.0783 14.194 42.9615 14.2068H35.3374C35.2345 14.2068 35.1998 14.2068 35.1998 14.3444V16.7304C35.1998 16.8402 35.1998 16.868 35.3374 16.868H38.8574C39.0257 16.8808 39.194 16.869 39.3589 16.8338C39.8697 16.7972 40.3721 16.6863 40.8513 16.5036C41.0255 16.4433 41.1938 16.3645 41.3527 16.27H41.4008C42.2259 15.8408 42.8962 15.1666 43.3189 14.339C43.3189 14.339 43.3669 14.235 43.313 14.2078V14.2068ZM33.8183 18.105V18.0639V16.4621V15.919V14.3033C33.8183 14.2138 33.8183 14.2004 33.7084 14.2004H32.2164C32.1338 14.2004 32.0996 14.2004 32.0996 14.0905V12.7842H33.6945C33.7836 12.7842 33.8183 12.7842 33.8183 12.6674V11.3749C33.8183 11.2922 33.8183 11.2719 33.7084 11.2719H32.2164C32.1338 11.2719 32.0996 11.2719 32.0996 11.162V9.95226C32.0996 9.87652 32.0996 9.85622 32.2095 9.85622H33.6876C33.7905 9.85622 33.8183 9.85622 33.8183 9.72554V6.01994C33.8183 5.91004 33.8183 5.88232 33.9559 5.88232H39.1119C39.4861 5.89717 39.8578 5.93826 40.2256 6.00608C40.9835 6.14616 41.7116 6.41693 42.3774 6.80353C42.8189 7.06341 43.2253 7.37724 43.5872 7.73859C43.8594 8.02124 44.105 8.32715 44.3228 8.65287C44.5391 8.98304 44.7188 9.33597 44.8598 9.70475C44.8772 9.80078 44.9692 9.86563 45.0653 9.84929H46.2959C46.4538 9.84929 46.4538 9.84929 46.4607 10.0008V11.1284C46.4607 11.2383 46.4196 11.266 46.3092 11.266H45.3603C45.2643 11.266 45.2365 11.266 45.2435 11.3897C45.2811 11.8085 45.2811 12.2288 45.2435 12.6476C45.2435 12.7644 45.2435 12.7782 45.3747 12.7782H46.4602C46.5082 12.8401 46.4602 12.902 46.4602 12.9644C46.4671 13.0441 46.4671 13.1247 46.4602 13.2044V14.0365C46.4602 14.1534 46.426 14.188 46.3226 14.188H45.0232C44.9326 14.1707 44.8445 14.2286 44.8237 14.3187C44.5143 15.1231 44.0193 15.8443 43.3798 16.4225C43.1461 16.6328 42.9006 16.8308 42.6442 17.0135C42.369 17.1719 42.1012 17.3367 41.819 17.4674C41.2998 17.7011 40.7553 17.8733 40.1964 17.9827C39.6658 18.0778 39.1277 18.1208 38.5876 18.1134H33.8163V18.1065L33.8183 18.105Z" fill="#FEFEFD"/>
</g>
<rect x="28.4326" y="1.375" width="21.25" height="21.25" rx="10.625" stroke="#0C0B14" stroke-width="0.75"/>
<defs>
<clipPath id="clip0_58_355">
<rect x="28.0576" y="1" width="22" height="22" rx="11" fill="white"/>
</clipPath>
</defs>
</svg>
