<svg width="22" height="22" viewBox="0 0 22 22" fill="none" xmlns="http://www.w3.org/2000/svg">
<path d="M10.9957 -0.00213623C17.0736 -0.00213623 22 4.92427 22 11.0022C22 17.0801 17.0736 22.0022 11 22.0022C4.92208 22.0022 2.85085e-06 17.0758 2.85085e-06 11.0022C-0.00432615 4.92427 4.92208 -0.00213623 10.9957 -0.00213623Z" fill="#8247E5"/>
<mask id="mask0_58_352" style="mask-type:luminance" maskUnits="userSpaceOnUse" x="3" y="4" width="16" height="14">
<path d="M18.1299 4.75543H3.70996V17.3918H18.1299V4.75543Z" fill="white"/>
</mask>
<g mask="url(#mask0_58_352)">
<path d="M14.5974 8.60172C14.3333 8.45021 13.9957 8.45021 13.697 8.60172L11.5931 9.84848L10.1645 10.6407L8.09957 11.8831C7.8355 12.0346 7.49784 12.0346 7.19914 11.8831L5.58442 10.9004C5.32035 10.7489 5.1342 10.4459 5.1342 10.1082V8.22077C5.1342 7.91774 5.28572 7.61904 5.58442 7.42856L7.19914 6.48484C7.46321 6.33333 7.80087 6.33333 8.09957 6.48484L9.71429 7.46752C9.97836 7.61904 10.1645 7.92207 10.1645 8.25973V9.50649L11.5931 8.67532V7.39393C11.5931 7.0909 11.4416 6.7922 11.1429 6.60172L8.13853 4.82683C7.87446 4.67532 7.5368 4.67532 7.2381 4.82683L4.16018 6.64068C3.86148 6.7922 3.70996 7.09523 3.70996 7.39393V10.9394C3.70996 11.2424 3.86148 11.5411 4.16018 11.7316L7.20347 13.5065C7.46754 13.658 7.8052 13.658 8.1039 13.5065L10.1688 12.2987L11.5974 11.4675L13.6623 10.2597C13.9264 10.1082 14.2641 10.1082 14.5628 10.2597L16.1775 11.2035C16.4416 11.355 16.6277 11.658 16.6277 11.9957V13.8831C16.6277 14.1861 16.4762 14.4848 16.1775 14.6753L14.6017 15.619C14.3377 15.7706 14 15.7706 13.7013 15.619L12.0823 14.6753C11.8182 14.5238 11.632 14.2208 11.632 13.8831V12.6753L10.2035 13.5065V14.7532C10.2035 15.0563 10.355 15.355 10.6537 15.5454L13.697 17.3203C13.961 17.4719 14.2987 17.4719 14.5974 17.3203L17.6407 15.5454C17.9048 15.3939 18.0909 15.0909 18.0909 14.7532V11.1688C18.0909 10.8658 17.9394 10.5671 17.6407 10.3766L14.5974 8.60172Z" fill="white"/>
</g>
</svg>
