<svg width="22" height="22" viewBox="0 0 22 22" fill="none" xmlns="http://www.w3.org/2000/svg">
<mask id="mask0_238_321" style="mask-type:luminance" maskUnits="userSpaceOnUse" x="0" y="0" width="22" height="22">
<path d="M22 0H0V22H22V0Z" fill="white"/>
</mask>
<g mask="url(#mask0_238_321)">
<path d="M11.0001 21.67C16.893 21.67 21.6701 16.8929 21.6701 11C21.6701 5.10714 16.893 0.330017 11.0001 0.330017C5.1072 0.330017 0.330078 5.10714 0.330078 11C0.330078 16.8929 5.1072 21.67 11.0001 21.67Z" fill="url(#paint0_linear_238_321)"/>
<path d="M15.67 15.2515L12.062 6.52854C11.8585 6.07754 11.556 5.85754 11.1573 5.85754H10.8383C10.4395 5.85754 10.137 6.07754 9.93351 6.52854L8.36326 10.329H7.17526C6.82051 10.3318 6.53176 10.6178 6.52901 10.9753V10.9835C6.53176 11.3383 6.82051 11.627 7.17526 11.6298H7.81326L6.31451 15.2515C6.28701 15.3313 6.27051 15.4138 6.27051 15.499C6.27051 15.7025 6.33376 15.862 6.44651 15.9858C6.55926 16.1095 6.72151 16.17 6.92501 16.17C7.05976 16.1673 7.18901 16.126 7.29626 16.0463C7.41176 15.9665 7.49151 15.851 7.55476 15.719L9.20476 11.627H10.3488C10.7035 11.6243 10.9923 11.3383 10.995 10.9808V10.9643C10.9923 10.6095 10.7035 10.3208 10.3488 10.318H9.73826L10.9978 7.18029L14.4298 15.7163C14.493 15.8483 14.5728 15.9638 14.6883 16.0435C14.7955 16.1233 14.9275 16.1645 15.0595 16.1673C15.263 16.1673 15.4225 16.1068 15.538 15.983C15.6535 15.8593 15.714 15.6998 15.714 15.4963C15.7168 15.4138 15.703 15.3285 15.67 15.2515Z" fill="white"/>
</g>
<defs>
<linearGradient id="paint0_linear_238_321" x1="18.9555" y1="4.30614" x2="3.07852" y2="17.665" gradientUnits="userSpaceOnUse">
<stop stop-color="#B6509E"/>
<stop offset="1" stop-color="#2EBAC6"/>
</linearGradient>
</defs>
</svg>
