<svg width="23" height="22" viewBox="0 0 23 22" fill="none" xmlns="http://www.w3.org/2000/svg">
<mask id="mask0_47_2247" style="mask-type:luminance" maskUnits="userSpaceOnUse" x="0" y="0" width="23" height="22">
<path d="M22.9238 0H0.923828V22H22.9238V0Z" fill="white"/>
</mask>
<g mask="url(#mask0_47_2247)">
<path d="M11.9239 21.67C17.8168 21.67 22.5939 16.8929 22.5939 11C22.5939 5.10711 17.8168 0.329987 11.9239 0.329987C6.03103 0.329987 1.25391 5.10711 1.25391 11C1.25391 16.8929 6.03103 21.67 11.9239 21.67Z" fill="url(#paint0_linear_47_2247)"/>
<path d="M16.5933 15.2515L12.9853 6.52848C12.7818 6.07748 12.4793 5.85748 12.0806 5.85748H11.7616C11.3628 5.85748 11.0603 6.07748 10.8568 6.52848L9.2866 10.329H8.0986C7.74385 10.3317 7.4551 10.6177 7.45235 10.9752V10.9835C7.4551 11.3382 7.74385 11.627 8.0986 11.6297H8.7366L7.23785 15.2515C7.21035 15.3312 7.19385 15.4137 7.19385 15.499C7.19385 15.7025 7.2571 15.862 7.36985 15.9857C7.4826 16.1095 7.64485 16.17 7.84835 16.17C7.9831 16.1672 8.11235 16.126 8.2196 16.0462C8.3351 15.9665 8.41485 15.851 8.4781 15.719L10.1281 11.627H11.2721C11.6268 11.6242 11.9156 11.3382 11.9183 10.9807V10.9642C11.9156 10.6095 11.6268 10.3207 11.2721 10.318H10.6616L11.9211 7.18023L15.3531 15.7162C15.4163 15.8482 15.4961 15.9637 15.6116 16.0435C15.7188 16.1232 15.8508 16.1645 15.9828 16.1672C16.1863 16.1672 16.3458 16.1067 16.4613 15.983C16.5768 15.8592 16.6373 15.6997 16.6373 15.4962C16.6401 15.4137 16.6263 15.3285 16.5933 15.2515Z" fill="white"/>
</g>
<defs>
<linearGradient id="paint0_linear_47_2247" x1="19.8793" y1="4.30611" x2="4.00234" y2="17.665" gradientUnits="userSpaceOnUse">
<stop stop-color="#B6509E"/>
<stop offset="1" stop-color="#2EBAC6"/>
</linearGradient>
</defs>
</svg>
