<svg width="23" height="22" viewBox="0 0 23 22" fill="none" xmlns="http://www.w3.org/2000/svg">
<path d="M2.9126 6.688V15.312C2.9126 15.8664 3.203 16.368 3.687 16.6496L11.1582 20.9616C11.6334 21.2344 12.223 21.2344 12.6982 20.9616L20.1694 16.6496C20.6446 16.3768 20.9438 15.8664 20.9438 15.312V6.688C20.9438 6.1336 20.6534 5.632 20.1694 5.3504L12.6982 1.0384C12.223 0.765601 11.6334 0.765601 11.1582 1.0384L3.687 5.3504C3.2118 5.6232 2.9214 6.1336 2.9214 6.688H2.9126Z" fill="#213147"/>
<path d="M13.5519 12.672L12.4871 15.5936C12.4607 15.6728 12.4607 15.7608 12.4871 15.8488L14.3175 20.8736L16.4383 19.6504L13.8951 12.672C13.8335 12.5136 13.6135 12.5136 13.5519 12.672Z" fill="#12AAFF"/>
<path d="M15.6905 7.76159C15.6289 7.60319 15.4089 7.60319 15.3473 7.76159L14.2825 10.6832C14.2561 10.7624 14.2561 10.8504 14.2825 10.9384L17.2833 19.1664L19.4041 17.9432L15.6905 7.77039V7.76159Z" fill="#12AAFF"/>
<path d="M11.9237 1.364C11.9765 1.364 12.0293 1.3816 12.0733 1.408L20.1517 6.072C20.2485 6.1248 20.3013 6.2304 20.3013 6.336V15.664C20.3013 15.7696 20.2397 15.8752 20.1517 15.928L12.0733 20.592C12.0293 20.6184 11.9765 20.636 11.9237 20.636C11.8709 20.636 11.8181 20.6184 11.7741 20.592L3.69574 15.928C3.59894 15.8752 3.54614 15.7696 3.54614 15.664V6.3272C3.54614 6.2216 3.60774 6.116 3.69574 6.0632L11.7741 1.3992C11.8181 1.3728 11.8709 1.3552 11.9237 1.3552V1.364ZM11.9237 0C11.6333 0 11.3517 0.0704 11.0877 0.22L3.00934 4.884C2.49014 5.1832 2.17334 5.7288 2.17334 6.3272V15.6552C2.17334 16.2536 2.49014 16.7992 3.00934 17.0984L11.0877 21.7624C11.3429 21.912 11.6333 21.9824 11.9237 21.9824C12.2141 21.9824 12.4957 21.912 12.7597 21.7624L20.8381 17.0984C21.3573 16.7992 21.6741 16.2536 21.6741 15.6552V6.3272C21.6741 5.7288 21.3573 5.1832 20.8381 4.884L12.7509 0.22C12.4957 0.0704 12.2053 0 11.9149 0H11.9237Z" fill="#9DCCED"/>
<path d="M6.57324 19.1752L7.32124 17.1336L8.81724 18.3744L7.41804 19.6592L6.57324 19.1752Z" fill="#213147"/>
<path d="M11.2374 5.66719H9.18704C9.03744 5.66719 8.89664 5.76399 8.84384 5.90479L4.45264 17.9432L6.57344 19.1664L11.4134 5.90479C11.4574 5.78159 11.3694 5.65839 11.2462 5.65839L11.2374 5.66719Z" fill="white"/>
<path d="M14.8281 5.66719H12.7777C12.6281 5.66719 12.4873 5.76399 12.4345 5.90479L7.41846 19.6504L9.53926 20.8736L14.9953 5.90479C15.0393 5.78159 14.9513 5.65839 14.8281 5.65839V5.66719Z" fill="white"/>
</svg>
