<svg width="23" height="22" viewBox="0 0 23 22" fill="none" xmlns="http://www.w3.org/2000/svg">
<circle cx="11.9238" cy="11" r="11" fill="#FF9F38"/>
<path fill-rule="evenodd" clip-rule="evenodd" d="M16.9379 9.19447C17.1575 7.74979 16.0405 6.973 14.5143 6.45467L15.0095 4.49718L13.8009 4.2008L13.3183 6.1066C13.0073 6.02966 12.6883 5.958 12.3698 5.88645L12.3698 5.88645L12.3495 5.8819L12.8356 3.9637L11.627 3.66663L11.1318 5.62343L11.0789 5.61152L11.0789 5.61151C10.8341 5.55636 10.5932 5.50209 10.3596 5.44422L10.361 5.43802L8.69353 5.02791L8.37178 6.30028C8.37178 6.30028 9.26917 6.50292 9.25029 6.51533C9.7399 6.63595 9.82803 6.95507 9.81334 7.20872L9.24959 9.43847C9.28316 9.44674 9.32653 9.45915 9.37549 9.47776L9.24749 9.44674L8.45712 12.5705C8.39696 12.7166 8.24518 12.9365 7.90246 12.8531C7.91505 12.8703 7.02395 12.6373 7.02395 12.6373L6.42383 14.0007L7.99758 14.3873C8.16658 14.4292 8.3337 14.4722 8.4991 14.5147L8.49913 14.5147L8.49929 14.5147C8.61996 14.5458 8.73972 14.5766 8.8586 14.6065L8.35849 16.5861L9.56644 16.8825L10.0616 14.925C10.3918 15.0125 10.7121 15.0938 11.0255 15.171L10.5317 17.1202L11.7403 17.4166L12.2404 15.4412C14.3024 15.8258 15.8524 15.6707 16.5049 13.8332C17.0309 12.354 16.4791 11.5 15.3942 10.9438C16.1846 10.7646 16.7791 10.2525 16.9379 9.19447ZM14.1751 13.0119C13.8331 14.3694 11.677 13.8082 10.6901 13.5513C10.6012 13.5282 10.5218 13.5075 10.454 13.4909L11.1185 10.8683C11.2011 10.8887 11.3022 10.911 11.4166 10.9364C12.4374 11.1623 14.5266 11.6248 14.1751 13.0119ZM11.6218 9.71908C12.4442 9.93544 14.2373 10.4072 14.5495 9.17356C14.8688 7.91178 13.1257 7.53178 12.2742 7.34616C12.1783 7.32524 12.0936 7.30679 12.0245 7.28982L11.423 9.66776C11.48 9.68175 11.5469 9.69935 11.6218 9.71908Z" fill="white"/>
</svg>
