<svg width="23" height="22" viewBox="0 0 23 22" fill="none" xmlns="http://www.w3.org/2000/svg">
<path d="M22.5923 13.661C21.1231 19.5539 15.1546 23.1402 9.26094 21.6707C3.3698 20.2015 -0.216513 14.2326 1.25326 8.34017C2.72175 2.44661 8.69031 -1.13997 14.5821 0.329158C20.4753 1.79829 24.0614 7.76788 22.5921 13.6611L22.5922 13.661H22.5923Z" fill="#F0B90B"/>
<path fill-rule="evenodd" clip-rule="evenodd" d="M11.9238 6.98141L9.07539 9.8298L9.07545 9.82968L7.41817 8.17235L11.9238 3.66675L16.4308 8.1737L14.7735 9.83103L11.9238 6.98141ZM6.24772 9.34248L4.59033 11.0001L6.24761 12.6571L7.905 10.9998L6.24772 9.34248ZM9.0754 12.1705L11.9238 15.0187L14.7735 12.1692L16.4317 13.8256L16.4309 13.8265L11.9238 18.3334L7.41819 13.8278L7.41584 13.8255L9.0754 12.1705ZM17.5997 9.34341L15.9423 11.0008L17.5997 12.6581L19.257 11.0007L17.5997 9.34341Z" fill="white"/>
<path d="M13.6047 10.9991H13.6055L11.9238 9.31738L10.6809 10.56L10.5381 10.7029L10.2436 10.9974L10.2412 10.9997L10.2436 11.0021L11.9238 12.6826L13.6056 11.0009L13.6064 10.9999L13.6049 10.9991" fill="white"/>
</svg>
