<svg width="23" height="23" viewBox="0 0 23 23" fill="none" xmlns="http://www.w3.org/2000/svg">
<path fill-rule="evenodd" clip-rule="evenodd" d="M11.9238 0.812378C17.9994 0.812378 22.9238 5.73682 22.9238 11.8124C22.9238 17.8879 17.9994 22.8124 11.9238 22.8124C5.84827 22.8124 0.923828 17.8879 0.923828 11.8124C0.923828 5.73682 5.84827 0.812378 11.9238 0.812378Z" fill="#F0B90B"/>
<path d="M6.96962 11.8124L6.97755 14.721L9.44902 16.1754V17.8782L5.53116 15.5804V10.9618L6.96962 11.8124ZM6.96962 8.90372V10.5987L5.53027 9.74723V8.05228L6.96962 7.20084L8.41601 8.05228L6.96962 8.90372ZM10.4812 8.05228L11.9205 7.20084L13.3669 8.05228L11.9205 8.90372L10.4812 8.05228Z" fill="white"/>
<path d="M8.00928 14.1181V12.4153L9.44862 13.2667V14.9617L8.00928 14.1181ZM10.4808 16.7853L11.9201 17.6367L13.3665 16.7853V18.4802L11.9201 19.3317L10.4808 18.4802V16.7853ZM15.4308 8.05228L16.8701 7.20084L18.3165 8.05228V9.74723L16.8701 10.5987V8.90372L15.4308 8.05228ZM16.8701 14.721L16.878 11.8124L18.3174 10.9609V15.5795L14.3995 17.8774V16.1745L16.8701 14.721Z" fill="white"/>
<path d="M15.8383 14.1181L14.3989 14.9616V13.2667L15.8383 12.4153V14.1181Z" fill="white"/>
<path d="M15.838 9.5066L15.8459 11.2095L13.3674 12.6638V15.5795L11.928 16.423L10.4887 15.5795V12.6638L8.01016 11.2095V9.5066L9.45567 8.65516L11.9192 10.1165L14.3977 8.65516L15.8441 9.5066H15.838ZM8.00928 6.59883L11.9201 4.29306L15.838 6.59883L14.3986 7.45027L11.9201 5.98889L9.44862 7.45027L8.00928 6.59883Z" fill="white"/>
</svg>
