<svg width="23" height="22" viewBox="0 0 23 22" fill="none" xmlns="http://www.w3.org/2000/svg">
<path d="M11.9238 0C17.9995 0 22.9238 4.9253 22.9238 11C22.9238 17.0757 17.9995 22 11.9238 22C5.84913 22 0.923828 17.0752 0.923828 11C0.923828 4.9253 5.84913 0 11.9238 0Z" fill="#F5AC37"/>
<path d="M12.328 11.7768H16.5079C16.597 11.7768 16.639 11.7768 16.6455 11.6599C16.6796 11.2347 16.6796 10.807 16.6455 10.3813C16.6455 10.2987 16.6044 10.2645 16.5148 10.2645H8.19623C8.09327 10.2645 8.06555 10.2987 8.06555 10.3952V11.6188C8.06555 11.7768 8.06555 11.7768 8.23039 11.7768H12.328ZM16.1787 8.83444C16.1906 8.80326 16.1906 8.7691 16.1787 8.73841C16.1089 8.58645 16.0262 8.44141 15.9302 8.30528C15.7856 8.07263 15.6154 7.85829 15.4213 7.66574C15.3297 7.54941 15.2238 7.44497 15.105 7.35636C14.51 6.84997 13.8027 6.49159 13.0423 6.3114C12.6587 6.22527 12.2667 6.18419 11.8736 6.18765H8.18187C8.07891 6.18765 8.06505 6.22874 8.06505 6.31833V8.75871C8.06505 8.86167 8.06505 8.88939 8.19573 8.88939H16.1292C16.1292 8.88939 16.198 8.87553 16.2118 8.83444H16.1782H16.1787ZM16.1787 13.2068C16.0619 13.194 15.944 13.194 15.8272 13.2068H8.20316C8.1002 13.2068 8.06555 13.2068 8.06555 13.3444V15.7304C8.06555 15.8402 8.06555 15.868 8.20316 15.868H11.7231C11.8914 15.8808 12.0597 15.869 12.2246 15.8338C12.7354 15.7972 13.2379 15.6863 13.717 15.5036C13.8913 15.4433 14.0596 15.3645 14.2185 15.27H14.2665C15.0917 14.8408 15.7619 14.1666 16.1846 13.339C16.1846 13.339 16.2326 13.235 16.1787 13.2078V13.2068ZM6.68399 17.105V17.0639V15.4621V14.919V13.3033C6.68399 13.2138 6.68399 13.2004 6.5741 13.2004H5.08215C4.99949 13.2004 4.96533 13.2004 4.96533 13.0905V11.7842H6.56024C6.64934 11.7842 6.68399 11.7842 6.68399 11.6674V10.3749C6.68399 10.2922 6.68399 10.2719 6.5741 10.2719H5.08215C4.99949 10.2719 4.96533 10.2719 4.96533 10.162V8.95226C4.96533 8.87652 4.96533 8.85622 5.07522 8.85622H6.55331C6.65627 8.85622 6.68399 8.85622 6.68399 8.72554V5.01994C6.68399 4.91004 6.68399 4.88232 6.8216 4.88232H11.9776C12.3518 4.89717 12.7235 4.93826 13.0913 5.00608C13.8492 5.14616 14.5773 5.41693 15.2431 5.80353C15.6847 6.06341 16.0911 6.37724 16.4529 6.73859C16.7252 7.02124 16.9707 7.32715 17.1885 7.65287C17.4048 7.98304 17.5845 8.33597 17.7256 8.70475C17.7429 8.80078 17.835 8.86563 17.931 8.84929H19.1616C19.3195 8.84929 19.3195 8.84929 19.3264 9.00077V10.1284C19.3264 10.2383 19.2853 10.266 19.1749 10.266H18.226C18.13 10.266 18.1023 10.266 18.1092 10.3897C18.1468 10.8085 18.1468 11.2288 18.1092 11.6476C18.1092 11.7644 18.1092 11.7782 18.2404 11.7782H19.3259C19.3739 11.8401 19.3259 11.902 19.3259 11.9644C19.3329 12.0441 19.3329 12.1247 19.3259 12.2044V13.0365C19.3259 13.1534 19.2918 13.188 19.1883 13.188H17.8889C17.7983 13.1707 17.7102 13.2286 17.6894 13.3187C17.3801 14.1231 16.8851 14.8443 16.2455 15.4225C16.0119 15.6328 15.7663 15.8308 15.5099 16.0135C15.2347 16.1719 14.9669 16.3367 14.6848 16.4674C14.1655 16.7011 13.621 16.8733 13.0621 16.9827C12.5315 17.0778 11.9934 17.1208 11.4534 17.1134H6.68201V17.1065L6.68399 17.105Z" fill="#FEFEFD"/>
</svg>
