<svg width="23" height="23" viewBox="0 0 23 23" fill="none" xmlns="http://www.w3.org/2000/svg">
<path d="M11.9238 22.8124C17.999 22.8124 22.9238 17.8875 22.9238 11.8124C22.9238 5.73725 17.999 0.812378 11.9238 0.812378C5.8487 0.812378 0.923828 5.73725 0.923828 11.8124C0.923828 17.8875 5.8487 22.8124 11.9238 22.8124Z" fill="#FF0420"/>
<path d="M8.71615 14.734C8.06055 14.734 7.52375 14.58 7.10575 14.272C6.69215 13.9596 6.48535 13.5108 6.48535 12.9344C6.48535 12.8112 6.49855 12.666 6.52495 12.49C6.59535 12.094 6.69655 11.6188 6.82855 11.06C7.20255 9.54635 8.17055 8.78955 9.72815 8.78955C10.1506 8.78955 10.5334 8.85995 10.8678 9.00515C11.2022 9.14155 11.4662 9.35275 11.6598 9.63435C11.8534 9.91155 11.9502 10.2416 11.9502 10.6244C11.9502 10.7388 11.937 10.884 11.9106 11.06C11.827 11.5484 11.7302 12.028 11.6114 12.49C11.4178 13.2424 11.0878 13.81 10.6126 14.184C10.1418 14.5536 9.50815 14.734 8.71615 14.734ZM8.83495 13.546C9.14295 13.546 9.40255 13.4536 9.61815 13.2732C9.83815 13.0928 9.99655 12.8156 10.089 12.4372C10.2166 11.918 10.3134 11.4692 10.3794 11.082C10.4014 10.9676 10.4146 10.8488 10.4146 10.7256C10.4146 10.224 10.155 9.97315 9.63135 9.97315C9.32335 9.97315 9.05935 10.0656 8.83935 10.246C8.62375 10.4264 8.46975 10.7036 8.37735 11.082C8.27615 11.4516 8.17935 11.9004 8.07815 12.4372C8.05615 12.5472 8.04295 12.6616 8.04295 12.7848C8.03855 13.2952 8.30695 13.546 8.83495 13.546Z" fill="white"/>
<path d="M12.3326 14.6548C12.271 14.6548 12.227 14.6372 12.1918 14.5976C12.1654 14.5536 12.1566 14.5052 12.1654 14.448L13.305 9.07997C13.3138 9.01837 13.3446 8.96997 13.3974 8.93037C13.4458 8.89077 13.4986 8.87317 13.5558 8.87317H15.7514C16.363 8.87317 16.8514 9.00077 17.221 9.25157C17.595 9.50677 17.7842 9.87197 17.7842 10.3516C17.7842 10.488 17.7666 10.6332 17.7358 10.7828C17.5994 11.4164 17.3222 11.8828 16.8998 12.1864C16.4862 12.49 15.9186 12.6396 15.197 12.6396H14.0838L13.7054 14.448C13.6922 14.5096 13.6658 14.558 13.613 14.5976C13.5646 14.6372 13.5118 14.6548 13.4546 14.6548H12.3326ZM15.2542 11.5C15.4874 11.5 15.6854 11.4384 15.857 11.3108C16.033 11.1832 16.1474 11.0028 16.2046 10.7652C16.2222 10.6728 16.231 10.5892 16.231 10.5188C16.231 10.3604 16.1826 10.2372 16.0902 10.1536C15.9978 10.0656 15.835 10.0216 15.6106 10.0216H14.6206L14.3082 11.5H15.2542Z" fill="white"/>
</svg>
