<svg width="23" height="22" viewBox="0 0 23 22" fill="none" xmlns="http://www.w3.org/2000/svg">
<path d="M11.9195 -0.00216675C17.9974 -0.00216675 22.9238 4.92424 22.9238 11.0022C22.9238 17.0801 17.9974 22.0022 11.9238 22.0022C5.84591 22.0022 0.923831 17.0758 0.923831 11.0022C0.919502 4.92424 5.84591 -0.00216675 11.9195 -0.00216675Z" fill="#8247E5"/>
<mask id="mask0_47_2232" style="mask-type:luminance" maskUnits="userSpaceOnUse" x="4" y="4" width="16" height="14">
<path d="M19.0537 4.7554H4.63379V17.3918H19.0537V4.7554Z" fill="white"/>
</mask>
<g mask="url(#mask0_47_2232)">
<path d="M15.5212 8.60172C15.2572 8.45021 14.9195 8.45021 14.6208 8.60172L12.5169 9.84848L11.0883 10.6407L9.0234 11.8831C8.75933 12.0346 8.42167 12.0346 8.12297 11.8831L6.50825 10.9004C6.24418 10.7489 6.05803 10.4459 6.05803 10.1082V8.22077C6.05803 7.91774 6.20955 7.61904 6.50825 7.42856L8.12297 6.48484C8.38704 6.33333 8.7247 6.33333 9.0234 6.48484L10.6381 7.46752C10.9022 7.61904 11.0883 7.92207 11.0883 8.25973V9.50649L12.5169 8.67532V7.39393C12.5169 7.0909 12.3654 6.7922 12.0667 6.60172L9.06236 4.82683C8.79829 4.67532 8.46063 4.67532 8.16193 4.82683L5.08401 6.64068C4.7853 6.7922 4.63379 7.09523 4.63379 7.39393V10.9394C4.63379 11.2424 4.7853 11.5411 5.08401 11.7316L8.12729 13.5065C8.39136 13.658 8.72903 13.658 9.02773 13.5065L11.0927 12.2987L12.5212 11.4675L14.5862 10.2597C14.8502 10.1082 15.1879 10.1082 15.4866 10.2597L17.1013 11.2035C17.3654 11.355 17.5515 11.658 17.5515 11.9957V13.8831C17.5515 14.1861 17.4 14.4848 17.1013 14.6753L15.5256 15.619C15.2615 15.7706 14.9238 15.7706 14.6251 15.619L13.0061 14.6753C12.742 14.5238 12.5559 14.2208 12.5559 13.8831V12.6753L11.1273 13.5065V14.7532C11.1273 15.0563 11.2788 15.355 11.5775 15.5454L14.6208 17.3203C14.8849 17.4719 15.2225 17.4719 15.5212 17.3203L18.5645 15.5454C18.8286 15.3939 19.0147 15.0909 19.0147 14.7532V11.1688C19.0147 10.8658 18.8632 10.5671 18.5645 10.3766L15.5212 8.60172Z" fill="white"/>
</g>
</svg>
