<svg width="23" height="22" viewBox="0 0 23 22" fill="none" xmlns="http://www.w3.org/2000/svg">
<path d="M22.5923 13.661C21.1231 19.5539 15.1546 23.1402 9.26094 21.6707C3.3698 20.2015 -0.216513 14.2326 1.25326 8.34017C2.72175 2.44661 8.69032 -1.13997 14.5821 0.329158C20.4753 1.79829 24.0614 7.76788 22.5921 13.6611L22.5922 13.661H22.5923Z" fill="url(#paint0_linear_47_2205)"/>
<path d="M10.1883 6.79385C10.0393 6.77258 10.0322 6.76549 10.1032 6.7584C10.2379 6.73712 10.5499 6.76549 10.7697 6.81513C11.2803 6.93568 11.7412 7.2477 12.2305 7.79373L12.3582 7.94264L12.5426 7.91428C13.3297 7.78663 14.1381 7.88591 14.8118 8.19793C14.9961 8.28302 15.2869 8.45321 15.3223 8.49576C15.3365 8.50994 15.3578 8.60213 15.372 8.69432C15.4216 9.02761 15.4003 9.2758 15.294 9.46727C15.2372 9.57364 15.2372 9.602 15.2727 9.69419C15.3011 9.7651 15.3862 9.81474 15.4642 9.81474C15.6344 9.81474 15.8116 9.54527 15.8967 9.16943L15.9322 9.02052L15.996 9.09143C16.3577 9.49563 16.6413 10.0558 16.6839 10.453L16.6981 10.5593L16.6342 10.4671C16.5279 10.304 16.4286 10.1977 16.2938 10.1055C16.0527 9.94238 15.7975 9.89275 15.1238 9.85729C14.5139 9.82183 14.1665 9.77219 13.8261 9.65873C13.2446 9.46727 12.9468 9.21907 12.2589 8.3043C11.954 7.90009 11.7625 7.68026 11.5711 7.49589C11.1527 7.09169 10.7343 6.87895 10.1883 6.79385Z" fill="#FF007A"/>
<path d="M15.4709 7.69448C15.4851 7.42501 15.5206 7.24773 15.5986 7.08463C15.6269 7.02081 15.6553 6.96408 15.6624 6.96408C15.6695 6.96408 15.6553 7.01372 15.634 7.07045C15.5773 7.22646 15.5702 7.44629 15.6057 7.69448C15.6553 8.01359 15.6766 8.05614 16.0169 8.40361C16.173 8.56671 16.3573 8.77236 16.4282 8.85745L16.5488 9.01346L16.4282 8.9C16.2793 8.75818 15.9389 8.48871 15.8609 8.45325C15.8113 8.42489 15.8042 8.42489 15.7688 8.46034C15.7404 8.48871 15.7333 8.53126 15.7333 8.7369C15.7262 9.05601 15.6837 9.25457 15.5773 9.46021C15.5206 9.56658 15.5135 9.54531 15.5631 9.42476C15.5986 9.33257 15.6057 9.29002 15.6057 8.9851C15.6057 8.36816 15.5347 8.21924 15.1022 7.97104C14.9958 7.90722 14.8114 7.81504 14.7051 7.7654C14.5916 7.71576 14.5065 7.67321 14.5136 7.67321C14.5278 7.65903 14.9462 7.77958 15.1093 7.85049C15.3575 7.94977 15.4 7.95686 15.4284 7.94977C15.4496 7.9285 15.4638 7.87177 15.4709 7.69448Z" fill="#FF007A"/>
<path d="M10.4785 8.75106C10.1807 8.33976 9.98923 7.70155 10.0318 7.22643L10.046 7.07751L10.1169 7.0917C10.2445 7.11297 10.4643 7.19807 10.5707 7.26189C10.8544 7.43208 10.982 7.66609 11.1026 8.24758C11.138 8.41777 11.1877 8.61632 11.2089 8.68015C11.2444 8.78651 11.3791 9.03471 11.4926 9.19072C11.5706 9.30418 11.5209 9.36091 11.3437 9.34673C11.0742 9.31836 10.7125 9.07017 10.4785 8.75106Z" fill="#FF007A"/>
<path d="M15.1094 11.8358C13.7054 11.2685 13.209 10.7792 13.209 9.94951C13.209 9.82895 13.2161 9.72968 13.2161 9.72968C13.2232 9.72968 13.2728 9.77222 13.3366 9.82186C13.6203 10.0488 13.9394 10.1481 14.8258 10.2757C15.3435 10.3537 15.6413 10.4104 15.9108 10.5026C16.7688 10.7863 17.3007 11.3678 17.4283 12.1549C17.4638 12.3818 17.4425 12.8144 17.3858 13.0413C17.3361 13.2186 17.1943 13.5448 17.1588 13.5519C17.1517 13.5519 17.1376 13.5164 17.1376 13.4597C17.1234 13.1619 16.9745 12.8782 16.7263 12.6584C16.4284 12.4031 16.0455 12.2116 15.1094 11.8358Z" fill="#FF007A"/>
<path d="M14.1165 12.0698C14.1023 11.9635 14.0669 11.8287 14.0456 11.772L14.0101 11.6656L14.074 11.7436C14.1661 11.85 14.237 11.9776 14.3009 12.1549C14.3505 12.2897 14.3505 12.3322 14.3505 12.552C14.3505 12.7648 14.3434 12.8144 14.3009 12.935C14.23 13.1264 14.1449 13.2612 14.003 13.4101C13.7478 13.6725 13.4145 13.8143 12.9393 13.8781C12.8542 13.8852 12.6131 13.9065 12.4004 13.9206C11.8686 13.949 11.514 14.0057 11.1949 14.1192C11.1523 14.1334 11.1098 14.1476 11.1027 14.1405C11.0885 14.1263 11.3084 13.9987 11.4856 13.9136C11.7338 13.793 11.9891 13.7292 12.5493 13.6299C12.8259 13.5874 13.1095 13.5306 13.1804 13.5023C13.8825 13.2824 14.23 12.7364 14.1165 12.0698Z" fill="#FF007A"/>
<path d="M14.7618 13.2115C14.5774 12.8073 14.5349 12.4243 14.6342 12.0627C14.6483 12.0272 14.6625 11.9918 14.6767 11.9918C14.6909 11.9918 14.7334 12.013 14.776 12.0414C14.8611 12.0981 15.0384 12.1974 15.4922 12.4456C16.0666 12.7576 16.3928 12.9987 16.6197 13.2753C16.8183 13.5164 16.9388 13.7929 16.9956 14.1333C17.031 14.3248 17.0097 14.7857 16.9601 14.9772C16.8041 15.58 16.4495 16.0622 15.9319 16.3387C15.8539 16.3813 15.79 16.4096 15.7829 16.4096C15.7759 16.4096 15.8042 16.3387 15.8468 16.2536C16.017 15.892 16.0382 15.5445 15.9106 15.1545C15.8326 14.9134 15.6695 14.6226 15.3433 14.1333C14.9533 13.566 14.8611 13.4171 14.7618 13.2115Z" fill="#FF007A"/>
<path d="M9.47851 15.3814C10.0033 14.9417 10.6486 14.6297 11.2442 14.5305C11.4995 14.4879 11.925 14.5021 12.159 14.5659C12.5349 14.6652 12.8752 14.8779 13.0525 15.1403C13.2227 15.3956 13.3007 15.6154 13.3787 16.1047C13.4071 16.2962 13.4425 16.4947 13.4496 16.5373C13.5064 16.7926 13.6198 16.9911 13.7616 17.0975C13.9815 17.2606 14.3644 17.2677 14.7402 17.1259C14.8041 17.1046 14.8608 17.0833 14.8608 17.0904C14.875 17.1046 14.6835 17.2322 14.5559 17.2961C14.3786 17.3882 14.2368 17.4166 14.0453 17.4166C13.7049 17.4166 13.4142 17.2393 13.1802 16.8848C13.1305 16.8138 13.0312 16.6082 12.9461 16.4167C12.6979 15.8423 12.5703 15.6722 12.2796 15.4807C12.0243 15.3176 11.6981 15.2821 11.4499 15.4027C11.1237 15.5587 11.0386 15.9771 11.2655 16.2324C11.3577 16.3387 11.5279 16.4238 11.6697 16.4451C11.9321 16.4806 12.159 16.2749 12.159 16.0125C12.159 15.8423 12.0952 15.7431 11.925 15.6651C11.6981 15.5658 11.4499 15.6792 11.457 15.8991C11.457 15.9913 11.4995 16.048 11.5917 16.0905C11.6484 16.1189 11.6484 16.1189 11.6059 16.1118C11.4002 16.0693 11.3506 15.814 11.5137 15.6509C11.7123 15.4523 12.1306 15.5374 12.2725 15.814C12.3292 15.9274 12.3363 16.1544 12.2867 16.2962C12.1661 16.6082 11.8257 16.7713 11.4782 16.6791C11.2442 16.6153 11.145 16.5515 10.8613 16.2607C10.3649 15.7502 10.1735 15.6509 9.46432 15.5445L9.32959 15.5232L9.47851 15.3814Z" fill="#FF007A"/>
<path fill-rule="evenodd" clip-rule="evenodd" d="M5.74874 3.97155C7.40101 5.97838 9.94678 9.09855 10.0744 9.26874C10.1808 9.41057 10.1382 9.5453 9.96097 9.64458C9.86169 9.70131 9.65604 9.75804 9.55676 9.75804C9.4433 9.75804 9.30857 9.70131 9.21638 9.60912C9.15256 9.5453 8.876 9.1411 8.25197 8.16959C7.77685 7.42501 7.37265 6.80806 7.36556 6.80097C7.33719 6.78679 7.33719 6.78679 8.20233 8.33269C8.74836 9.3042 8.92564 9.65167 8.92564 9.69422C8.92564 9.7864 8.89727 9.83604 8.78381 9.96369C8.59235 10.1764 8.50725 10.4175 8.44343 10.921C8.37252 11.4812 8.18105 11.8783 7.63503 12.552C7.31592 12.9491 7.26628 13.02 7.18827 13.1831C7.089 13.3817 7.06063 13.4951 7.04645 13.7504C7.03227 14.0199 7.06063 14.1901 7.13864 14.4454C7.20955 14.6723 7.28755 14.8212 7.47902 15.112C7.64212 15.3672 7.74139 15.5587 7.74139 15.6296C7.74139 15.6864 7.75558 15.6864 8.01086 15.6296C8.62071 15.4878 9.1242 15.2467 9.40076 14.9489C9.57095 14.7645 9.61349 14.6652 9.61349 14.4099C9.61349 14.2468 9.6064 14.2114 9.56386 14.1121C9.49294 13.9561 9.35821 13.8284 9.06746 13.6299C8.68454 13.3675 8.52144 13.1548 8.47889 12.8711C8.44343 12.63 8.48598 12.4669 8.69872 12.0202C8.91855 11.5592 8.97528 11.3678 9.01073 10.8997C9.03201 10.6019 9.06746 10.4813 9.15256 10.3892C9.24475 10.2899 9.32275 10.2544 9.54258 10.2261C9.90424 10.1764 10.1382 10.0842 10.3226 9.90695C10.4857 9.75804 10.5566 9.60912 10.5637 9.38929L10.5708 9.22619L10.4786 9.12691C10.1453 8.74398 5.52891 3.66663 5.50764 3.66663C5.50055 3.66663 5.61401 3.80136 5.74874 3.97155ZM7.92599 14.0554C8.004 13.9206 7.96145 13.7504 7.83381 13.6653C7.71325 13.5873 7.52888 13.6228 7.52888 13.7292C7.52888 13.7575 7.54306 13.7859 7.58561 13.8001C7.64943 13.8355 7.65652 13.871 7.60688 13.949C7.55724 14.027 7.55724 14.0979 7.62107 14.1475C7.72034 14.2255 7.85508 14.183 7.92599 14.0554Z" fill="#FF007A"/>
<path fill-rule="evenodd" clip-rule="evenodd" d="M10.7983 10.3253C10.6281 10.3749 10.465 10.5593 10.4153 10.7437C10.387 10.8571 10.4012 11.0628 10.4508 11.1266C10.5288 11.2259 10.5997 11.2542 10.7983 11.2542C11.1883 11.2542 11.5216 11.0841 11.557 10.8784C11.5925 10.7082 11.4436 10.4742 11.2379 10.3678C11.1316 10.3111 10.9117 10.2898 10.7983 10.3253ZM11.2521 10.6799C11.3089 10.5948 11.2876 10.5026 11.1812 10.4388C10.9898 10.3182 10.699 10.4175 10.699 10.6019C10.699 10.6941 10.8479 10.7933 10.9898 10.7933C11.0819 10.7933 11.2096 10.7366 11.2521 10.6799Z" fill="#FF007A"/>
<defs>
<linearGradient id="paint0_linear_47_2205" x1="0.923828" y1="0" x2="0.923828" y2="22" gradientUnits="userSpaceOnUse">
<stop stop-color="#FEF3F9"/>
<stop offset="1" stop-color="#FDE5F2"/>
</linearGradient>
</defs>
</svg>
