<svg width="23" height="23" viewBox="0 0 23 23" fill="none" xmlns="http://www.w3.org/2000/svg">
<circle cx="11.9238" cy="11.4913" r="11" fill="#3DBAA2"/>
<path d="M11.9238 22.4924C18.02 22.4924 22.9238 17.5886 22.9238 11.4924C22.9238 5.39617 18.02 0.492371 11.9238 0.492371C5.82763 0.492371 0.923828 5.39617 0.923828 11.4924C0.923828 17.5886 5.82763 22.4924 11.9238 22.4924Z" fill="#2775CA"/>
<path d="M14.9488 13.2337C14.9488 11.6299 13.9863 11.0799 12.0613 10.85C10.6863 10.6663 10.4113 10.3 10.4113 9.65868C10.4113 9.01738 10.87 8.60488 11.7863 8.60488C12.6113 8.60488 13.07 8.87988 13.2988 9.56738C13.345 9.70488 13.4825 9.79618 13.62 9.79618H14.3537C14.5374 9.79618 14.6749 9.65868 14.6749 9.47498V9.42878C14.4912 8.42008 13.6662 7.64128 12.6124 7.54998V6.44998C12.6124 6.26628 12.4749 6.12878 12.2461 6.08368H11.5586C11.3749 6.08368 11.2374 6.22118 11.1923 6.44998V7.50378C9.81729 7.68748 8.94609 8.60378 8.94609 9.74998C8.94609 11.2625 9.86239 11.8587 11.7874 12.0875C13.0711 12.3163 13.4836 12.5913 13.4836 13.325C13.4836 14.0587 12.8423 14.5625 11.9711 14.5625C10.7798 14.5625 10.3673 14.0587 10.2298 13.3712C10.1836 13.1875 10.0461 13.0962 9.90859 13.0962H9.12979C8.94609 13.0962 8.80859 13.2337 8.80859 13.4174V13.4636C8.99229 14.6098 9.72489 15.4348 11.2374 15.6636V16.7636C11.2374 16.9473 11.3749 17.0848 11.6037 17.1299H12.2912C12.4749 17.1299 12.6124 16.9924 12.6575 16.7636V15.6636C14.0314 15.4337 14.9488 14.4712 14.9488 13.2337Z" fill="white"/>
<path d="M9.58604 18.0462C6.01105 16.7625 4.17736 12.775 5.50725 9.24622C6.19475 7.32122 7.70725 5.85491 9.58604 5.16741C9.76974 5.07611 9.86104 4.93861 9.86104 4.70871V4.06741C9.86104 3.88371 9.76974 3.74621 9.58604 3.70111C9.53984 3.70111 9.44854 3.70111 9.40234 3.74731C5.04855 5.12231 2.66486 9.75112 4.03986 14.106C4.86485 16.6723 6.83605 18.6435 9.40234 19.4685C9.58604 19.5598 9.76864 19.4685 9.81484 19.2848C9.86104 19.2386 9.86104 19.1935 9.86104 19.1011V18.4598C9.86104 18.3212 9.72354 18.1386 9.58604 18.0462ZM14.4436 3.74621C14.2599 3.65491 14.0773 3.74621 14.0311 3.92991C13.9849 3.97611 13.9849 4.02121 13.9849 4.11361V4.75491C13.9849 4.93861 14.1224 5.12121 14.2599 5.21361C17.8349 6.49732 19.6686 10.4848 18.3387 14.0136C17.6512 15.9386 16.1387 17.4049 14.2599 18.0924C14.0762 18.1837 13.9849 18.3212 13.9849 18.5511V19.1924C13.9849 19.3761 14.0762 19.5136 14.2599 19.5587C14.3061 19.5587 14.3974 19.5587 14.4436 19.5125C18.7974 18.1375 21.1811 13.5087 19.8061 9.15382C18.9811 6.54242 16.9648 4.57121 14.4436 3.74621Z" fill="white"/>
</svg>
