<svg width="23" height="22" viewBox="0 0 23 22" fill="none" xmlns="http://www.w3.org/2000/svg">
<circle cx="11.9238" cy="11" r="11" fill="#3DBAA2"/>
<path fill-rule="evenodd" clip-rule="evenodd" d="M13.245 7.85611V9.48274C16.2652 9.6223 18.5346 10.2211 18.5346 10.9382C18.5346 11.6552 16.2652 12.254 13.245 12.3929V17.6069H10.5548V12.3943C7.52982 12.2547 5.25488 11.6559 5.25488 10.9382C5.25488 10.2204 7.52982 9.62092 10.5548 9.48205V7.85611H6.8327V5.37561H16.9671V7.85611H13.245ZM13.2452 11.9494V11.9508C15.9127 11.8326 17.903 11.3685 17.903 10.8116C17.903 10.2561 15.9127 9.79069 13.2452 9.67176V11.4888C13.1675 11.4957 12.7516 11.5301 11.9218 11.5301C11.2301 11.5301 10.7296 11.5005 10.555 11.4881V9.67038C7.882 9.79001 5.88687 10.2554 5.88687 10.8116C5.88687 11.3685 7.882 11.8339 10.555 11.9515V11.9494C10.7269 11.9577 11.2157 11.9783 11.9101 11.9783C12.7798 11.9783 13.1696 11.9549 13.2452 11.9494Z" fill="white"/>
</svg>
