<svg width="25" height="25" viewBox="0 0 25 25" fill="none" xmlns="http://www.w3.org/2000/svg">
<g clip-path="url(#clip0_3064_54)">
<path d="M20.5 1.37305H4.5C2.70507 1.37305 1.25 2.82812 1.25 4.62305V20.623C1.25 22.418 2.70507 23.873 4.5 23.873H20.5C22.2949 23.873 23.75 22.418 23.75 20.623V4.62305C23.75 2.82812 22.2949 1.37305 20.5 1.37305Z" fill="#0C0927"/>
<path d="M20.5 1.37305H4.5C2.70507 1.37305 1.25 2.82812 1.25 4.62305V20.623C1.25 22.418 2.70507 23.873 4.5 23.873H20.5C22.2949 23.873 23.75 22.418 23.75 20.623V4.62305C23.75 2.82812 22.2949 1.37305 20.5 1.37305Z" stroke="#2BCBF1" stroke-width="1.5"/>
<path fill-rule="evenodd" clip-rule="evenodd" d="M18.05 8.57305C17.45 7.97305 16.55 7.97305 15.95 8.57305L11 13.523L9.05 11.573C8.45 10.973 7.55 10.973 6.95 11.573C6.35 12.173 6.35 13.073 6.95 13.673L9.95 16.673C10.25 16.973 10.55 17.123 11 17.123C11.45 17.123 11.75 16.973 12.05 16.673L18.05 10.673C18.65 10.073 18.65 9.17305 18.05 8.57305Z" fill="white"/>
</g>
<defs>
<clipPath id="clip0_3064_54">
<rect width="25" height="25" fill="white"/>
</clipPath>
</defs>
</svg>
