<svg width="24" height="25" viewBox="0 0 24 25" fill="none" xmlns="http://www.w3.org/2000/svg">
<path d="M20 9.75H11C9.89543 9.75 9 10.6454 9 11.75V20.75C9 21.8546 9.89543 22.75 11 22.75H20C21.1046 22.75 22 21.8546 22 20.75V11.75C22 10.6454 21.1046 9.75 20 9.75Z" stroke="white" stroke-width="2" stroke-linecap="round" stroke-linejoin="round"/>
<path d="M5 15.75H4C3.46957 15.75 2.96086 15.5393 2.58579 15.1642C2.21071 14.7891 2 14.2804 2 13.75V4.75C2 4.21957 2.21071 3.71086 2.58579 3.33579C2.96086 2.96071 3.46957 2.75 4 2.75H13C13.5304 2.75 14.0391 2.96071 14.4142 3.33579C14.7893 3.71086 15 4.21957 15 4.75V5.75" stroke="white" stroke-width="2" stroke-linecap="round" stroke-linejoin="round"/>
</svg>
