<svg width="21" height="21" viewBox="0 0 21 21" fill="none" xmlns="http://www.w3.org/2000/svg">
<path d="M7.84388 7.97988C8.0398 7.42294 8.42651 6.9533 8.93551 6.65416C9.44451 6.35501 10.043 6.24566 10.6249 6.34547C11.2068 6.44528 11.7346 6.74782 12.1148 7.19949C12.495 7.65116 12.7031 8.22281 12.7022 8.81321C12.7022 10.4799 10.2022 11.3132 10.2022 11.3132M10.2689 14.6465H10.2772M18.6022 10.4799C18.6022 15.0823 14.8713 18.8132 10.2689 18.8132C5.66651 18.8132 1.93555 15.0823 1.93555 10.4799C1.93555 5.87751 5.66651 2.14655 10.2689 2.14655C14.8713 2.14655 18.6022 5.87751 18.6022 10.4799Z" stroke="#777E90" stroke-width="1.66667" stroke-linecap="round" stroke-linejoin="round"/>
</svg>
