<svg width="50" height="50" viewBox="0 0 50 50" fill="none" xmlns="http://www.w3.org/2000/svg">
<path d="M24.9902 -0.00494385C38.8036 -0.00494385 50 11.1914 50 25.0049C50 38.8184 38.8036 50.0049 25 50.0049C11.1865 50.0049 6.4792e-06 38.8085 6.4792e-06 25.0049C-0.00983217 11.1914 11.1865 -0.00494385 24.9902 -0.00494385Z" fill="#8247E5"/>
<mask id="mask0_296_181" style="mask-type:luminance" maskUnits="userSpaceOnUse" x="8" y="10" width="34" height="30">
<path d="M41.2042 10.8077H8.43164V39.5267H41.2042V10.8077Z" fill="white"/>
</mask>
<g mask="url(#mask0_296_181)">
<path d="M33.1758 19.5494C32.5757 19.205 31.8083 19.205 31.1294 19.5494L26.3478 22.3829L23.1011 24.1834L18.408 27.007C17.8079 27.3514 17.0405 27.3514 16.3616 27.007L12.6918 24.7737C12.0916 24.4293 11.6686 23.7406 11.6686 22.9732V18.6836C11.6686 17.9948 12.0129 17.316 12.6918 16.8831L16.3616 14.7383C16.9617 14.3939 17.7292 14.3939 18.408 14.7383L22.0778 16.9716C22.678 17.316 23.1011 18.0047 23.1011 18.7721V21.6056L26.3478 19.7166V16.8044C26.3478 16.1157 26.0035 15.4368 25.3246 15.0039L18.4966 10.9701C17.8964 10.6257 17.129 10.6257 16.4501 10.9701L9.45486 15.0924C8.77599 15.4368 8.43164 16.1255 8.43164 16.8044V24.8622C8.43164 25.5509 8.77599 26.2298 9.45486 26.6627L16.3714 30.6965C16.9716 31.0409 17.739 31.0409 18.4179 30.6965L23.1109 27.9516L26.3576 26.0625L31.0507 23.3176C31.6508 22.9732 32.4183 22.9732 33.0971 23.3176L36.7669 25.4624C37.3671 25.8067 37.7902 26.4954 37.7902 27.2629V31.5525C37.7902 32.2412 37.4458 32.9201 36.7669 33.353L33.1857 35.4978C32.5855 35.8421 31.8181 35.8421 31.1392 35.4978L27.4596 33.353C26.8594 33.0086 26.4364 32.3199 26.4364 31.5525V28.8075L23.1896 30.6965V33.5301C23.1896 34.2188 23.534 34.8976 24.2128 35.3305L31.1294 39.3644C31.7295 39.7087 32.497 39.7087 33.1758 39.3644L40.0924 35.3305C40.6926 34.9862 41.1156 34.2975 41.1156 33.5301V25.3837C41.1156 24.695 40.7713 24.0161 40.0924 23.5832L33.1758 19.5494Z" fill="white"/>
</g>
</svg>
