<svg width="21" height="21" viewBox="0 0 21 21" fill="none" xmlns="http://www.w3.org/2000/svg">
<path fill-rule="evenodd" clip-rule="evenodd" d="M11.078 12.5803C10.6181 12.563 10.2312 12.9217 10.2138 13.3816C10.1747 14.4185 10.1197 15.1752 10.0656 15.7178C10.0124 16.2521 9.68983 16.5736 9.24018 16.6286C8.70997 16.6934 7.96202 16.7464 6.93564 16.7464C5.90923 16.7464 5.16128 16.6934 4.63108 16.6286C4.18165 16.5736 3.85892 16.252 3.80568 15.7175C3.70536 14.7104 3.60231 12.9704 3.60231 10.0798C3.60231 7.18907 3.70536 5.44909 3.80568 4.44198C3.85892 3.90753 4.18165 3.58589 4.63108 3.53095C5.16128 3.46613 5.90924 3.41308 6.93564 3.41308C7.96202 3.41308 8.70997 3.46613 9.24018 3.53094C9.68983 3.58591 10.0124 3.9074 10.0656 4.44173C10.1197 4.98429 10.1747 5.74103 10.2138 6.77785C10.2312 7.23776 10.6181 7.59652 11.078 7.57916C11.5379 7.5618 11.8966 7.17489 11.8793 6.71498C11.8391 5.65079 11.7821 4.85927 11.7241 4.27651C11.602 3.05137 10.7479 2.03617 9.44241 1.87659C8.83473 1.80231 8.0183 1.74642 6.93564 1.74642C5.85296 1.74642 5.03651 1.80231 4.42884 1.8766C3.12326 2.0362 2.26924 3.05188 2.14722 4.27677C2.03978 5.35532 1.93565 7.15348 1.93565 10.0798C1.93565 13.006 2.03978 14.8042 2.14722 15.8827C2.26924 17.1076 3.12326 18.1233 4.42884 18.2829C5.03651 18.3572 5.85296 18.4131 6.93564 18.4131C8.01829 18.4131 8.83473 18.3572 9.44241 18.2829C10.7479 18.1233 11.602 17.1081 11.7241 15.883C11.7821 15.3002 11.8391 14.5087 11.8793 13.4445C11.8966 12.9846 11.5379 12.5977 11.078 12.5803Z" fill="#777E91"/>
<path fill-rule="evenodd" clip-rule="evenodd" d="M14.2623 12.4072C13.9369 12.7327 13.9369 13.2603 14.2623 13.5858C14.5877 13.9112 15.1154 13.9112 15.4408 13.5858L18.3575 10.6691C18.6829 10.3437 18.6829 9.81602 18.3575 9.49058L15.4408 6.57391C15.1154 6.24847 14.5877 6.24847 14.2623 6.57391C13.9369 6.89935 13.9369 7.42699 14.2623 7.75242L15.7564 9.2465H7.76823C7.30799 9.2465 6.9349 9.6196 6.9349 10.0798C6.9349 10.5401 7.30799 10.9132 7.76823 10.9132L15.7564 10.9132L14.2623 12.4072Z" fill="#777E91"/>
</svg>
