<svg width="190" height="55" viewBox="0 0 190 55" fill="none" xmlns="http://www.w3.org/2000/svg">
<g clip-path="url(#clip0_173_1576)">
<path d="M88.6876 53.9623C88.4961 53.4736 80.3163 34.8253 80.1585 34.5299C80.0459 34.314 79.9895 34.2912 79.9445 34.4162C79.8881 34.6094 76.7221 52.5304 76.7221 52.7123C76.7221 52.7804 75.8208 52.8259 74.2885 52.8259C72.0351 52.8259 71.8661 52.8145 71.9224 52.6327C71.9562 52.5191 73.4097 45.0643 75.1448 36.064C76.8911 27.0637 78.3446 19.6771 78.3671 19.6544C78.3896 19.6317 78.4798 19.7794 78.5699 19.9953C79.2459 21.5976 88.8003 43.3483 88.8679 43.4165C88.9129 43.462 91.3804 38.1209 94.3548 31.5639C98.1067 23.2795 99.7855 19.6999 99.8418 19.8362C99.9207 20.0521 105.565 52.4395 105.565 52.6895C105.565 52.7918 105.013 52.8259 103.199 52.8259C101.69 52.8259 100.833 52.7804 100.833 52.7123C100.833 52.4282 97.9941 34.6776 97.9265 34.4844C97.8588 34.3367 96.6646 36.8709 93.4648 43.9734C91.0536 49.3144 89.0143 53.8032 88.9355 53.9623L88.8003 54.2464L88.6876 53.9623Z" fill="#DCDCDC"/>
<path d="M112.214 37.314V21.8021H114.557C118.028 21.8135 121.329 21.9953 122.579 22.2567C125.869 22.9385 128.483 25.575 129.171 28.9046C129.385 29.916 129.385 32.2002 129.171 33.1888C128.461 36.6094 125.869 39.0754 122.129 39.9277C121.565 40.0527 120.54 40.1436 119.064 40.1777L116.833 40.2345V46.5302V52.8258H114.524H112.214V37.314ZM120.687 35.7344C122.839 35.3139 123.999 34.4616 124.619 32.8366C124.979 31.9161 124.979 30.0865 124.619 29.166C124.258 28.2455 123.526 27.4614 122.546 26.9727C121.543 26.4727 120.484 26.2682 118.433 26.1659L116.833 26.0864V30.9956V35.8935H118.343C119.177 35.8935 120.225 35.8253 120.687 35.7344Z" fill="#DCDCDC"/>
<path d="M134.184 37.314V21.8021L136.471 21.8249L138.747 21.8589L138.78 35.1321L138.803 48.3939H143.31H147.817V50.6098V52.8258H141H134.184V37.314Z" fill="#DCDCDC"/>
<path d="M152.211 37.314V21.8021L154.498 21.8249L156.774 21.8589L156.808 37.3481L156.83 52.8258H154.521H152.211V37.314Z" fill="#DCDCDC"/>
<path d="M164.267 37.314V21.8021L171.906 21.8249L179.533 21.8589L179.567 24.0522L179.59 26.2341H174.238H168.886V29.9842V33.7343H174.012H179.139V35.8935V38.0526H174.012H168.886V45.4392V52.8258H166.576H164.267V37.314Z" fill="#DCDCDC"/>
<path d="M184.997 37.314V21.8021L187.284 21.8249L189.56 21.8589L189.594 37.3481L189.617 52.8258H187.307H184.997V37.314Z" fill="#DCDCDC"/>
<g filter="url(#filter0_di_173_1576)">
<path d="M1.31079 53.347C1.03856 53.2985 0.755655 53.1478 0.606194 52.9755C0.355314 52.6794 0.307274 51.9795 0.515451 51.5326C0.611533 51.3334 1.31079 50.1221 1.76451 49.3845C2.01539 48.9699 2.2983 48.48 2.46911 48.1731C2.54384 48.0385 2.70398 47.7747 2.82675 47.5809C2.94952 47.3871 3.06162 47.1932 3.08297 47.1502C3.10432 47.1125 3.21108 46.924 3.32317 46.7356C3.43527 46.5526 3.52601 46.3857 3.52601 46.3695C3.52601 46.3533 3.60608 46.2134 3.70216 46.0572C3.905 45.7396 4.19325 45.2497 4.39075 44.8889C4.46548 44.7543 4.69501 44.3667 4.89785 44.0275C5.10069 43.6883 5.41028 43.1661 5.58109 42.87C5.75191 42.5739 5.93873 42.2455 6.00279 42.1432C6.06684 42.0409 6.15225 41.8847 6.19495 41.7932C6.23765 41.7071 6.29637 41.6102 6.31772 41.5779C6.33907 41.5509 6.49387 41.2925 6.65934 41.0126C6.81948 40.7326 7.0757 40.2965 7.22516 40.0435C7.37462 39.7904 7.57746 39.4405 7.67888 39.2628C7.7803 39.0851 7.9084 38.859 7.96178 38.7675C8.0205 38.6706 8.11658 38.4983 8.18064 38.3906C8.24469 38.2775 8.3301 38.116 8.3728 38.0245C8.42084 37.9384 8.77848 37.3192 9.17348 36.6516C9.56848 35.984 9.9368 35.3703 9.98484 35.2787C10.0382 35.1926 10.177 34.9611 10.2944 34.7673C10.7428 34.0458 11.2126 33.2598 11.2126 33.2275C11.2126 33.2113 11.2819 33.0929 11.3727 32.9637C11.4634 32.8344 11.5328 32.7106 11.5328 32.6945C11.5328 32.6729 11.6022 32.5599 11.6876 32.436C11.773 32.3122 11.9545 32.0161 12.0986 31.7792C12.2374 31.5423 12.5043 31.0955 12.6911 30.7886C12.878 30.4817 13.0274 30.2233 13.0274 30.2179C13.0274 30.2071 13.1876 29.9379 13.3797 29.6149C13.5772 29.2972 13.7747 28.9634 13.8281 28.8719C13.8761 28.7858 14.0256 28.5435 14.1537 28.3335C14.2872 28.1289 14.538 27.7144 14.7089 27.4183C14.885 27.1222 15.0558 26.8368 15.0825 26.7884C15.1839 26.6161 15.4188 26.2231 16.0914 25.1086C16.4597 24.4948 16.7639 23.978 16.7639 23.9618C16.7639 23.9457 16.8066 23.8703 16.8654 23.7949C16.9187 23.7142 17.2337 23.2027 17.5646 22.6535C18.5521 21.0169 18.7923 20.6077 18.7923 20.5754C18.7923 20.5592 18.8617 20.4462 18.9418 20.3223C19.0272 20.1985 19.214 19.9024 19.3528 19.6655C20.3777 17.9696 20.6072 17.5766 20.6072 17.555C20.6072 17.5389 20.6499 17.4635 20.7086 17.3881C20.8154 17.2374 21.9363 15.3853 22.1178 15.0623C22.1712 14.96 22.2619 14.8146 22.3153 14.7393C22.3634 14.6639 22.4221 14.567 22.4381 14.5239C22.4594 14.4808 22.5288 14.3516 22.5929 14.2439C22.9345 13.6894 23.5324 12.7095 23.6284 12.5373C23.6925 12.4296 23.9007 12.0796 24.0982 11.7566C24.2903 11.4336 24.4505 11.1644 24.4505 11.1536C24.4505 11.1428 24.6053 10.8898 24.7974 10.5937C24.9896 10.2976 25.1444 10.0445 25.1444 10.0338C25.1444 10.023 25.3739 9.62997 25.6568 9.16157C25.9397 8.68779 26.212 8.23554 26.2654 8.14402C26.4095 7.89636 26.6977 7.41181 26.8312 7.20184C26.9433 7.02417 27.776 5.62975 27.9735 5.29057C28.4219 4.52067 28.6354 4.16534 28.8062 3.89076C29.2065 3.25008 29.6816 2.45865 29.6816 2.43711C29.6816 2.36174 30.4876 1.22574 30.7972 0.865023C31.2136 0.380475 31.4911 0.186655 31.9876 0.0574424C32.4092 -0.0556189 32.8523 -0.00178014 33.3274 0.218959C33.6957 0.385859 34.3309 1.02654 34.6085 1.49494C34.9981 2.16254 35.3771 2.81398 35.5105 3.05626C35.5853 3.19086 35.7721 3.51927 35.9269 3.78308C36.0817 4.05228 36.2472 4.343 36.2952 4.42915C36.3433 4.52067 36.5034 4.78986 36.6475 5.03752C37.176 5.92586 37.2774 6.10353 37.4215 6.36734C37.5016 6.51809 37.6777 6.83035 37.8218 7.06724C38.0994 7.54102 38.2222 7.75099 38.425 8.1171C38.4998 8.25169 38.6973 8.59626 38.8681 8.88161C39.1883 9.41461 39.2364 9.49537 39.5834 10.136C39.6954 10.346 39.8289 10.5721 39.8823 10.6475C39.9303 10.7229 40.0211 10.8736 40.0851 10.9867C40.1438 11.0944 40.2452 11.272 40.304 11.3743C40.3627 11.4766 40.4588 11.6435 40.5121 11.7458C40.5709 11.8481 40.6776 12.0312 40.7523 12.1496C40.8324 12.2681 40.8911 12.3811 40.8911 12.4027C40.8911 12.4188 40.9392 12.505 40.9979 12.5857C41.0566 12.6719 41.174 12.8657 41.2594 13.0272C41.4623 13.4148 41.7345 13.8832 42.0121 14.3355C42.1349 14.5454 42.311 14.8469 42.4017 15.0085C42.4872 15.17 42.5779 15.3315 42.5992 15.3584C42.6206 15.3907 42.7007 15.5199 42.7701 15.6545C42.8448 15.7891 43.1117 16.2521 43.3626 16.6882C43.875 17.5819 43.907 17.6573 43.8323 17.8027C43.7789 17.905 43.3412 18.2011 42.8661 18.4595C42.7327 18.5295 42.6153 18.5995 42.5992 18.6156C42.5832 18.6318 42.4284 18.7179 42.2523 18.8095C42.0761 18.901 41.3342 19.3209 40.5975 19.7463C39.8663 20.1716 39.1456 20.5808 38.9962 20.6615C38.6973 20.8284 38.2862 21.0599 37.3414 21.6037C36.4607 22.1098 36.3433 22.169 36.2365 22.169C36.0977 22.169 35.9056 21.9644 35.7241 21.6306C35.4678 21.1461 35.2757 20.8015 35.2276 20.7423C35.2063 20.71 35.1155 20.5538 35.0301 20.3923C34.7686 19.8916 34.5284 19.4663 34.2828 19.0464C34.1494 18.8256 33.9786 18.5241 33.8985 18.3734C33.5569 17.7488 33.306 17.302 33.2633 17.2481C33.2313 17.2158 33.1405 17.0543 33.0551 16.8928C32.4733 15.773 32.4039 15.6761 32.2811 15.7245C32.2117 15.7514 31.9982 16.0852 31.7367 16.5967C31.6726 16.7151 31.5605 16.909 31.4858 17.0274C31.1922 17.485 30.589 18.5457 30.589 18.6049C30.589 18.6318 30.5677 18.6695 30.541 18.6803C30.5143 18.691 30.3862 18.8902 30.2581 19.1271C29.9538 19.6709 29.8631 19.8378 29.5481 20.3654C29.404 20.6023 29.2012 20.9522 29.0944 21.1461C28.8596 21.5606 28.7368 21.7814 28.5233 22.1475C28.4325 22.2928 28.3044 22.5243 28.2297 22.6589C28.155 22.7881 28.0429 22.9927 27.9735 23.1112C27.9094 23.2296 27.8347 23.3535 27.8133 23.3804C27.7866 23.4127 27.6799 23.5903 27.5731 23.7842C27.461 23.978 27.3276 24.2149 27.2742 24.3118C27.1781 24.4733 27.1087 24.5917 26.8472 25.0601C26.7191 25.2863 26.5162 25.647 26.3561 25.9377C26.3027 26.04 26.2333 26.1531 26.212 26.18C26.1906 26.2123 26.1212 26.32 26.0625 26.4223C26.0091 26.5246 25.801 26.8853 25.6035 27.2191C25.4113 27.5529 25.2512 27.8436 25.2512 27.8598C25.2512 27.8705 25.2085 27.9513 25.1497 28.0267C24.8401 28.4735 24.7547 28.7535 24.9095 28.8127C24.9576 28.8289 28.2777 28.845 32.2918 28.845C40.384 28.845 39.8983 28.8665 39.6954 28.5112C39.6421 28.4143 39.5513 28.2528 39.4979 28.1612C39.4392 28.0643 39.3431 27.8921 39.2844 27.7844C39.2204 27.6713 39.1243 27.5098 39.0709 27.4183C39.0175 27.3321 38.8948 27.1114 38.7933 26.9337C38.6973 26.7561 38.4624 26.3469 38.2756 26.0238C37.9553 25.4693 37.9393 25.4262 38.014 25.3024C38.0567 25.227 38.4517 24.9632 38.9695 24.6563C39.4552 24.3764 39.9944 24.0587 40.1705 23.9564C40.3467 23.8542 40.5975 23.7088 40.731 23.6334C40.8644 23.5634 41.1046 23.4234 41.2648 23.3265C41.8039 23.0089 42.359 22.6805 42.4658 22.6212C42.5245 22.5889 42.6793 22.4974 42.8128 22.422C42.9462 22.3413 43.2078 22.1905 43.3999 22.0829C43.8003 21.8514 44.5796 21.3991 45.1614 21.0545C45.6098 20.7853 45.7913 20.7315 45.9461 20.8176C46.0048 20.8446 46.2984 21.2914 46.6027 21.8029C46.9016 22.3144 47.2699 22.9227 47.4087 23.1542C47.5528 23.3858 47.6702 23.5903 47.6702 23.6065C47.6702 23.6226 47.7129 23.698 47.7716 23.7734C47.825 23.8542 47.9371 24.0426 48.0172 24.188C48.0973 24.3387 48.2147 24.5433 48.2787 24.6456C48.615 25.1732 48.6844 25.2916 48.6844 25.3132C48.6844 25.3239 48.914 25.717 49.1969 26.1854C49.4798 26.6591 49.7413 27.0899 49.7734 27.1491C49.8588 27.2944 50.1737 27.8328 50.2324 27.9297C50.3605 28.1451 51.5402 30.1317 51.6203 30.2717C51.9085 30.7778 52.2982 31.44 52.453 31.6823C52.5544 31.8384 52.6345 31.9784 52.6345 31.9999C52.6345 32.0161 52.7038 32.1399 52.7946 32.2745C52.88 32.4037 52.9547 32.5222 52.9547 32.533C52.9547 32.5491 53.0615 32.7268 53.1949 32.9367C53.3284 33.1467 53.4351 33.3244 53.4351 33.3352C53.4351 33.3459 53.5899 33.6151 53.7821 33.9328C53.9743 34.2504 54.1291 34.525 54.1291 34.5358C54.1291 34.5465 54.1984 34.665 54.2892 34.7942C54.3799 34.9234 54.4493 35.0418 54.4493 35.0526C54.4493 35.0688 54.6095 35.3433 54.807 35.661C54.9991 35.984 55.202 36.3232 55.25 36.4093C55.3034 36.5009 55.4689 36.7916 55.6237 37.0554C55.7785 37.3246 55.9813 37.6745 56.0774 37.8361C56.3816 38.3583 56.9475 39.2951 57.0008 39.3597C57.0329 39.3974 57.1183 39.5481 57.1983 39.6935C57.5026 40.248 58.9011 42.6008 58.9438 42.6169C58.9652 42.6277 58.9865 42.66 58.9865 42.6815C58.9865 42.7462 59.6965 43.9575 60.6252 45.4812C60.7213 45.6427 60.8281 45.815 60.8548 45.858C60.9722 46.0411 61.7088 47.3224 61.7088 47.3386C61.7088 47.3494 61.8263 47.5486 61.9651 47.7801C62.1092 48.0116 62.2373 48.2377 62.2586 48.2808C62.28 48.3238 62.3974 48.5177 62.5149 48.7115C62.6376 48.9053 62.8084 49.196 62.8992 49.3575C62.9899 49.5191 63.0753 49.6644 63.0913 49.6806C63.1074 49.6967 63.1821 49.8152 63.2515 49.9498C63.3262 50.0844 63.513 50.4128 63.6732 50.6766C64.1216 51.4303 64.1643 51.5057 64.1643 51.6188C64.1643 51.6726 64.1909 51.7372 64.2176 51.7534C64.2497 51.7695 64.271 51.9526 64.271 52.1518C64.271 52.7117 64.0682 53.067 63.6305 53.277C63.4597 53.3578 63.0593 53.3685 59.3869 53.3685C56.4937 53.3685 55.282 53.3524 55.1699 53.3093C55.0845 53.2716 54.903 53.2124 54.7696 53.1747C54.4653 53.0832 53.9636 52.7925 53.6326 52.5179C53.3604 52.2918 53.1469 52.0064 52.9067 51.5488C52.8266 51.3927 52.5971 50.9942 52.4049 50.6551C52.2074 50.3213 52.0473 50.0198 52.0473 49.9982C52.0473 49.9713 52.0313 49.9498 52.0046 49.9498C51.9832 49.9498 51.9085 49.8367 51.8338 49.6967C51.6683 49.3791 51.2146 48.5715 50.9797 48.1731C50.7929 47.8554 50.6701 47.6401 50.4566 47.2578C50.3819 47.1232 50.2217 46.8487 50.099 46.6387C49.9762 46.4341 49.8107 46.1541 49.7413 46.0196C49.6186 45.8042 49.4371 45.4865 49.1061 44.9051C49.0474 44.8082 48.962 44.6467 48.9033 44.5551C48.8499 44.4582 48.6951 44.189 48.5563 43.9575C48.4229 43.726 48.3108 43.5214 48.3108 43.5053C48.3108 43.4945 48.236 43.3761 48.1506 43.2469C48.0652 43.1176 47.9905 42.9992 47.9905 42.983C47.9905 42.9669 47.8837 42.7677 47.7503 42.5416C47.6168 42.3208 47.5101 42.127 47.5101 42.1162C47.5101 42.1055 47.4407 41.9816 47.3553 41.8363C47.2752 41.6963 47.0991 41.3948 46.971 41.1741C46.8482 40.9533 46.6774 40.6734 46.6027 40.5549C46.4639 40.3503 46.3571 40.1565 45.9995 39.5051C45.9087 39.3435 45.7272 39.0259 45.5991 38.8052C45.2842 38.2722 45.1774 38.0837 44.9853 37.7284C44.8945 37.5669 44.7824 37.3731 44.7344 37.2977C44.6437 37.1631 44.4728 36.867 44.1846 36.3286C44.0992 36.1671 43.9871 36.0002 43.9444 35.9679C43.875 35.914 41.473 35.8979 32.3238 35.8979C21.4026 35.8979 20.778 35.9033 20.7033 35.9948C20.6552 36.0432 20.5698 36.1778 20.5058 36.2909C20.319 36.6247 20.2069 36.8185 19.9293 37.2977C19.6304 37.8091 19.4169 38.186 19.2514 38.509C19.1873 38.6275 19.1233 38.7352 19.1073 38.7513C19.0913 38.7675 19.0165 38.8859 18.9471 39.0205C18.8724 39.1551 18.7603 39.3489 18.7016 39.4512C18.0237 40.6249 17.4152 41.6801 17.2977 41.9009C17.223 42.0516 17.0949 42.2724 17.0148 42.3962C16.9348 42.5254 16.8707 42.6385 16.8707 42.66C16.8707 42.6762 16.8227 42.7569 16.7693 42.8377C16.7106 42.9184 16.5878 43.1284 16.4917 43.3007C16.3956 43.4784 16.2515 43.7314 16.1714 43.866C16.0006 44.1406 15.4668 45.1043 15.4348 45.185C15.4241 45.2174 15.3708 45.2981 15.3227 45.3735C15.2747 45.4489 15.1733 45.6158 15.0985 45.7504C14.901 46.1003 14.7569 46.3587 14.3352 47.0963C14.0203 47.6401 13.7214 48.1731 13.5505 48.4961C13.4651 48.6576 13.3744 48.8138 13.353 48.8461C13.3263 48.873 13.2463 49.0076 13.1769 49.1422C13.1022 49.2768 12.9901 49.476 12.926 49.5891C12.8673 49.6967 12.7712 49.869 12.7125 49.9659C12.6591 50.0575 12.4936 50.3428 12.3495 50.5958C12.2001 50.8489 11.9919 51.2311 11.8744 51.4465C11.3193 52.5125 10.4332 53.1424 9.21085 53.3416C8.89058 53.3955 1.61505 53.3955 1.31079 53.347ZM9.53646 52.7602C10.2197 52.4748 10.9243 51.888 11.1378 51.425C11.1912 51.3119 11.2499 51.2042 11.2659 51.1881C11.2873 51.1719 11.3834 51.005 11.4901 50.8112C11.5915 50.6174 11.8478 50.1597 12.0666 49.7883C12.7232 48.6576 12.8246 48.48 12.974 48.2C13.0541 48.0547 13.2249 47.7478 13.3584 47.527C13.4865 47.3063 13.668 46.9886 13.7587 46.8271C13.8495 46.6656 14.1057 46.2026 14.3352 45.8042C14.8476 44.9051 14.8797 44.8405 15.1359 44.3775C15.248 44.1729 15.3814 43.9414 15.4295 43.866C15.4775 43.7906 15.5896 43.5968 15.6804 43.4353C15.7711 43.2738 15.8885 43.053 15.9472 42.9507C16.2889 42.3639 16.6892 41.6532 16.8173 41.4163C16.8974 41.271 17.0522 40.991 17.1643 40.7972C17.5112 40.1888 17.5593 40.1027 17.6767 39.8981C17.7408 39.785 17.8529 39.5858 17.9276 39.4512C17.997 39.3166 18.0771 39.1874 18.0984 39.1551C18.1198 39.1282 18.2105 38.9667 18.3012 38.8052C18.4934 38.4498 18.7763 37.9384 19.182 37.2223C19.3528 36.9316 19.4863 36.6785 19.4863 36.6678C19.4863 36.6516 19.5343 36.5762 19.5877 36.4955C19.6464 36.4147 19.7692 36.2048 19.8652 36.0325C20.1268 35.5425 20.2336 35.4079 20.415 35.3379C20.5378 35.2949 23.6018 35.2841 32.2171 35.3056C43.8376 35.3326 43.8536 35.3326 44.0405 35.4456C44.2753 35.5802 44.4141 35.7794 44.9853 36.7593C45.2308 37.19 45.5084 37.6584 45.5938 37.7984C45.6792 37.9437 45.7486 38.073 45.7486 38.0837C45.7486 38.0999 45.818 38.2129 45.8981 38.3368C45.9781 38.4606 46.0795 38.6383 46.1222 38.7244C46.1649 38.8159 46.3785 39.1874 46.5866 39.5535C46.8002 39.9142 46.9763 40.2265 46.9763 40.2319C46.9763 40.2427 47.1578 40.5603 47.3766 40.9318C47.5955 41.3087 47.777 41.6263 47.777 41.6425C47.777 41.6532 47.8464 41.7663 47.9264 41.8901C48.0065 42.014 48.1079 42.1916 48.1506 42.2778C48.1933 42.3693 48.2681 42.4985 48.3161 42.5739C48.4015 42.7031 48.5029 42.8861 48.8819 43.5699C48.9833 43.7476 49.1808 44.0975 49.3303 44.3452C49.4744 44.5928 49.5919 44.8082 49.5919 44.8189C49.5919 44.8297 49.6613 44.9428 49.7467 45.0666C49.8267 45.1904 49.9655 45.4219 50.0509 45.5835C50.2804 46.0142 50.4032 46.2295 50.6221 46.601C50.7288 46.7894 50.8196 46.951 50.8196 46.9563C50.8196 46.9671 50.953 47.204 51.1185 47.4786C51.4655 48.06 51.5669 48.2323 51.8338 48.7115C51.9405 48.9053 52.2128 49.3899 52.4476 49.7883C52.6772 50.1867 52.9227 50.6228 52.9974 50.7574C53.0722 50.892 53.1949 51.0965 53.275 51.215C53.3497 51.3334 53.4565 51.5165 53.5045 51.6188C53.6914 52.028 54.3799 52.5663 54.9191 52.7225C55.0899 52.7709 55.2767 52.8355 55.3461 52.8624C55.4155 52.8894 57.1716 52.9109 59.4136 52.9109C63.7959 52.9109 63.5878 52.9271 63.7639 52.5502C63.9401 52.1733 63.8333 51.7911 63.3102 50.9996C63.2355 50.8812 63.1127 50.6712 63.0433 50.5312C62.9686 50.3859 62.8938 50.2728 62.8725 50.2728C62.8458 50.2728 62.8298 50.2459 62.8298 50.219C62.8298 50.1867 62.7711 50.0628 62.691 49.9444C62.6163 49.8259 62.5095 49.6429 62.4508 49.5406C62.3974 49.4383 62.3013 49.2714 62.2426 49.1691C62.1359 48.9753 61.5914 48.0493 61.4953 47.9039C61.4686 47.8608 61.3672 47.6885 61.2711 47.527C61.1804 47.3655 61.0843 47.2255 61.0576 47.2148C61.0363 47.204 61.0149 47.1717 61.0149 47.1502C61.0149 47.0909 60.6413 46.4341 60.5879 46.3964C60.5665 46.3803 60.5078 46.2834 60.4544 46.1811C60.3477 45.9711 59.8246 45.072 59.3708 44.3236C59.104 43.8822 58.8798 43.4999 58.6022 43.0046C58.5435 42.9023 58.4474 42.7515 58.394 42.6708C58.3353 42.5954 58.2926 42.52 58.2926 42.5039C58.2926 42.4931 58.1325 42.2185 57.9403 41.8955C57.7428 41.5725 57.5453 41.2387 57.4919 41.1471C57.3211 40.851 57.0489 40.3988 56.8674 40.1134C56.7713 39.9573 56.6912 39.8173 56.6912 39.8012C56.6912 39.7689 55.9333 38.4821 55.7838 38.2668C55.7358 38.1914 55.6237 37.9976 55.5329 37.8361C55.3835 37.5561 55.1699 37.1954 54.903 36.7593C54.7216 36.4632 53.9636 35.1872 53.8622 35.0095C53.638 34.6111 53.1896 33.852 53.0295 33.599C52.928 33.4428 52.848 33.3028 52.848 33.2867C52.848 33.2705 52.7679 33.1306 52.6665 32.9744C52.5117 32.7322 52.1113 32.0592 51.7484 31.4346C51.1986 30.4871 50.4139 29.168 50.3338 29.0496C50.2804 28.9688 50.2324 28.8881 50.2324 28.8719C50.2324 28.8504 50.163 28.7373 50.0829 28.6135C49.9975 28.4897 49.9121 28.3497 49.8961 28.3066C49.8748 28.2635 49.8054 28.1343 49.7413 28.0267C49.5705 27.7467 49.2449 27.1975 48.615 26.1261C48.3161 25.6254 48.0599 25.2001 48.0439 25.184C48.0279 25.1678 47.9798 25.0871 47.9371 24.9955C47.8944 24.9094 47.7556 24.6725 47.6329 24.4679C47.5048 24.2687 47.4033 24.0964 47.4033 24.0857C47.4033 24.0749 47.2058 23.7411 46.971 23.3481C46.7308 22.9497 46.4745 22.519 46.3998 22.3844C46.3251 22.2498 46.2504 22.1313 46.229 22.1152C46.213 22.099 46.1436 21.9806 46.0795 21.8406C46.0101 21.706 45.9034 21.5283 45.834 21.4422L45.7166 21.2914L45.423 21.4529C45.2628 21.5445 44.8572 21.7814 44.5209 21.9806C44.1846 22.1798 43.8003 22.4059 43.6668 22.4813C43.5334 22.5566 43.1437 22.7828 42.7967 22.9873C42.4498 23.1866 42.1562 23.3535 42.1402 23.3535C42.1242 23.3535 42.0441 23.4019 41.964 23.4557C41.884 23.515 41.6758 23.6388 41.505 23.7357C41.3288 23.8272 41.1473 23.9403 41.0993 23.978C41.0566 24.021 40.9979 24.0534 40.9819 24.0534C40.9605 24.0534 40.7844 24.1503 40.5922 24.2687C40.4 24.3872 40.2346 24.4841 40.2239 24.4841C40.2132 24.4841 39.9944 24.6079 39.7328 24.7586C39.4766 24.9148 39.119 25.1194 38.9428 25.2217C38.7667 25.3239 38.6065 25.4316 38.5905 25.4639C38.5425 25.5393 38.5798 25.6524 38.7133 25.8408C38.82 25.9969 39.0869 26.4599 39.5727 27.3375C39.6581 27.499 39.8396 27.8113 39.9677 28.0213C40.0904 28.2366 40.1972 28.4251 40.1972 28.4466C40.1972 28.4627 40.2719 28.5812 40.3573 28.7104C40.5388 28.9796 40.5815 29.3457 40.4321 29.4049C40.32 29.448 24.5359 29.448 24.2797 29.4049C23.9914 29.3565 23.8473 29.195 23.8793 28.9688C23.9167 28.7481 24.3864 27.7628 24.5092 27.6605C24.5679 27.6067 25.2512 26.4223 25.2512 26.3684C25.2512 26.3361 25.2672 26.3146 25.2939 26.3146C25.3152 26.3146 25.3899 26.2015 25.4647 26.0615C25.5341 25.9162 25.6729 25.6847 25.7689 25.5339C25.865 25.3886 25.9451 25.2486 25.9451 25.2217C25.9451 25.1947 26.0198 25.0709 26.1052 24.9417C26.196 24.8125 26.2654 24.694 26.2654 24.6779C26.2654 24.6563 26.3454 24.5164 26.4468 24.3602C26.6016 24.1126 27.0127 23.4234 27.2796 22.9497C27.3329 22.8635 27.4824 22.5997 27.6212 22.3682C27.7546 22.1367 27.8667 21.9267 27.8667 21.8998C27.8667 21.8675 27.8881 21.846 27.9148 21.846C27.9414 21.846 27.9735 21.8029 27.9895 21.7544C28.0108 21.7006 28.0802 21.5606 28.1496 21.4422C28.219 21.3237 28.4912 20.8769 28.7475 20.4462C29.0037 20.0155 29.2759 19.5578 29.3506 19.4286C29.42 19.294 29.5535 19.0679 29.6336 18.9279C29.719 18.7825 29.7884 18.6533 29.7884 18.6372C29.7884 18.621 29.8577 18.5026 29.9485 18.3734C30.0339 18.2442 30.1086 18.1257 30.1086 18.1042C30.1086 18.0826 30.1834 17.9642 30.2688 17.835C30.3542 17.7058 30.4289 17.5927 30.4289 17.5766C30.4289 17.5658 30.5677 17.3289 30.7332 17.0489C30.8986 16.769 31.2403 16.1929 31.4858 15.7622C31.7367 15.3315 31.9822 14.9115 32.0303 14.82C32.0836 14.7339 32.2811 14.3947 32.4786 14.077C32.6708 13.754 32.8309 13.4794 32.8309 13.4687C32.8309 13.4579 32.8843 13.3556 32.9537 13.2425C33.1192 12.9841 33.4074 12.4996 33.5302 12.2788C34.4163 10.7229 34.5017 10.5937 34.6885 10.5937C34.7686 10.5937 34.8593 10.6152 34.8914 10.6367C35.0035 10.7067 35.0301 10.9113 34.9501 11.0675C34.822 11.3151 34.6405 11.6382 34.5337 11.7889C34.475 11.8643 34.4323 11.9396 34.4323 11.9558C34.4323 11.9666 34.2935 12.2035 34.128 12.4834C33.9626 12.7634 33.7597 13.1133 33.685 13.2587C33.6049 13.4094 33.4021 13.7594 33.2313 14.0394C32.8256 14.7123 32.7242 14.8954 32.7242 14.9546C32.7242 14.9815 32.9057 15.3261 33.1299 15.7191C33.354 16.1121 33.6049 16.559 33.685 16.7044C33.7651 16.8551 33.9199 17.1297 34.032 17.3235C34.1441 17.5173 34.2935 17.7811 34.3629 17.9157C34.4376 18.0503 34.5391 18.2334 34.5924 18.3195C34.6458 18.4111 34.7472 18.5887 34.822 18.7233C34.8914 18.8579 35.0408 19.1217 35.1529 19.3155C35.265 19.5094 35.4251 19.8001 35.5159 19.9616C36.2418 21.2753 36.2792 21.3345 36.4393 21.3237C36.5247 21.3237 36.9571 21.1084 37.3948 20.85C38.1902 20.3816 38.8094 20.0262 39.3165 19.7463C39.8182 19.4717 40.4374 19.1163 40.731 18.9387C40.8911 18.8418 41.1473 18.6964 41.2915 18.6156C41.5904 18.4541 42.2523 18.0773 42.7327 17.7973C42.9943 17.6465 43.053 17.5873 43.0423 17.4797C43.037 17.4097 42.8768 17.0866 42.6847 16.769C42.4925 16.4459 42.3324 16.1768 42.3324 16.166C42.3324 16.1552 42.1722 15.8699 41.9801 15.5361C41.7826 15.2023 41.5797 14.8577 41.5317 14.7662C41.4783 14.68 41.3128 14.3893 41.158 14.1201C40.7577 13.4364 40.5228 13.0272 40.368 12.7472C40.1972 12.4403 39.8929 11.9181 39.7328 11.6597C39.6634 11.5466 39.61 11.4443 39.61 11.4282C39.61 11.4066 39.5406 11.2936 39.4606 11.1698C39.3805 11.0459 39.2791 10.8736 39.2364 10.7821C39.1937 10.696 39.1083 10.5506 39.0496 10.4591C38.9855 10.3729 38.8627 10.163 38.7773 10.0015C38.6866 9.83994 38.5638 9.6192 38.5051 9.5169C38.409 9.35539 38.03 8.68779 37.6777 8.06326C37.619 7.96097 37.5229 7.81022 37.4696 7.72946C37.4108 7.65408 37.3681 7.57871 37.3681 7.56256C37.3681 7.55179 37.208 7.26106 37.0158 6.92726C36.8183 6.58808 36.5194 6.07123 36.3539 5.77511C36.1831 5.479 35.8682 4.93523 35.6493 4.56374C35.4305 4.19226 35.1903 3.78308 35.1156 3.64848C35.0408 3.51389 34.9287 3.3093 34.8593 3.19086C34.7899 3.07241 34.6618 2.8409 34.5764 2.67939C33.9679 1.56493 33.3754 0.881176 32.8843 0.71966C32.5907 0.62275 32.105 0.606598 32.0569 0.687356C32.0409 0.714275 31.9715 0.741195 31.9128 0.741195C31.7474 0.741195 31.0534 1.48955 30.6371 2.11946C30.2047 2.77091 29.7884 3.46543 29.7884 3.54081C29.7884 3.56773 29.767 3.59465 29.735 3.59465C29.7083 3.59465 29.6816 3.61618 29.6816 3.64848C29.6816 3.6754 29.5802 3.86384 29.4521 4.06304C29.2439 4.39146 28.203 6.11968 27.9735 6.52886C27.9201 6.62038 27.7226 6.94341 27.5358 7.25568C26.8525 8.38091 26.7671 8.52627 26.7297 8.60165C26.7084 8.64472 26.5963 8.83854 26.4735 9.03236C26.3508 9.22618 26.1906 9.48998 26.1159 9.62458C26.0465 9.75918 25.9611 9.89377 25.9397 9.92608C25.8917 9.9853 25.1124 11.2828 24.9255 11.6005C24.8722 11.6974 24.7708 11.8643 24.7014 11.9773C24.5519 12.2196 24.2583 12.7095 24.1302 12.9357C24.0768 13.0272 23.858 13.3933 23.6391 13.7486C23.4149 14.1093 23.1801 14.5078 23.1107 14.637C23.0413 14.7662 22.9665 14.8846 22.9505 14.9008C22.8972 14.9492 22.5288 15.6061 22.5288 15.6599C22.5288 15.6868 22.5075 15.7084 22.4861 15.7084C22.4595 15.7084 22.3901 15.7999 22.3313 15.9129C22.2726 16.0206 21.8082 16.8013 21.3011 17.6465C20.794 18.4918 20.3403 19.2563 20.2869 19.3425C20.2336 19.434 20.0147 19.7947 19.7959 20.15C19.577 20.5108 19.3848 20.8338 19.3635 20.8769C19.3261 20.9684 19.2247 21.1353 18.7923 21.8298C18.6322 22.0882 18.4721 22.3521 18.44 22.4113C18.408 22.4705 18.2212 22.7828 18.0237 23.1004C17.8315 23.4181 17.6714 23.6926 17.6714 23.7088C17.6714 23.7249 17.602 23.8434 17.5112 23.9726C17.4205 24.1018 17.3511 24.2203 17.3511 24.2364C17.3511 24.2526 17.2443 24.4356 17.1109 24.6402C16.9775 24.8448 16.8707 25.0278 16.8707 25.0494C16.8707 25.0655 16.8013 25.184 16.7159 25.3078C16.6358 25.4316 16.4277 25.7654 16.2568 26.0454C15.9312 26.5892 15.8939 26.6538 15.5362 27.2837C15.4081 27.5044 15.2747 27.7252 15.2373 27.7682C15.2053 27.8113 15.1252 27.9351 15.0665 28.0374C15.0078 28.1397 14.6555 28.7373 14.2818 29.3565C13.9082 29.981 13.5612 30.5625 13.5078 30.6486C13.4545 30.7401 13.3157 30.9662 13.1982 31.1601C13.0755 31.3539 12.8886 31.6661 12.7819 31.86C12.6698 32.0538 12.4509 32.4091 12.2961 32.6514C12.1413 32.8991 12.0132 33.109 12.0132 33.1306C12.0132 33.1467 11.9438 33.2598 11.8638 33.3836C11.7837 33.5074 11.6823 33.6851 11.6396 33.7712C11.5969 33.8628 11.5115 34.0081 11.4474 34.0943C11.3834 34.1858 11.2819 34.3419 11.2232 34.4442C11.0791 34.7027 10.54 35.5964 10.3318 35.9248C10.2357 36.0755 10.0169 36.4739 9.83538 36.8131C9.65923 37.1523 9.39233 37.6315 9.24287 37.8791C9.09341 38.1268 8.97064 38.3529 8.97064 38.3798C8.97064 38.4068 8.94929 38.4283 8.92794 38.4283C8.90659 38.4283 8.80517 38.5683 8.70375 38.7406C8.60233 38.9075 8.42084 39.2251 8.29273 39.4351C8.16462 39.6504 8.0632 39.8389 8.0632 39.8496C8.0632 39.8819 7.79097 40.3342 7.54543 40.7272C7.44935 40.8779 7.36928 41.0179 7.36928 41.0395C7.36928 41.061 7.32658 41.1418 7.26786 41.2171C7.21448 41.2979 7.11306 41.4594 7.04367 41.5779C6.97962 41.6963 6.83549 41.9493 6.7234 42.1432C6.6113 42.337 6.45651 42.6169 6.37644 42.7623C6.29637 42.9131 6.16292 43.1338 6.08285 43.2576C5.99745 43.3815 5.92806 43.4945 5.92806 43.516C5.92806 43.5322 5.79461 43.7691 5.62913 44.0437C5.46366 44.3182 5.28217 44.6197 5.22879 44.7167C5.17008 44.8082 5.08467 44.9697 5.02595 45.0666C4.97258 45.1581 4.81778 45.4273 4.67899 45.6588C4.54555 45.8903 4.43345 46.0949 4.43345 46.1111C4.43345 46.1218 4.35872 46.2403 4.27331 46.3695C4.18791 46.4987 4.11318 46.6172 4.11318 46.6387C4.11318 46.6548 4.04912 46.7679 3.96905 46.8971C3.84628 47.0909 3.54203 47.6132 3.20574 48.2C3.1577 48.2915 2.99222 48.5661 2.8481 48.8192C2.69864 49.0722 2.51715 49.3845 2.44776 49.5191C2.37303 49.6537 2.15418 50.0144 1.96735 50.3266C1.77519 50.6389 1.551 51.0265 1.46025 51.1934C1.36951 51.355 1.23073 51.5972 1.14532 51.7211C1.02789 51.9095 0.99586 52.0172 0.99586 52.2541C0.99586 52.5287 1.00654 52.561 1.20404 52.7279L1.40688 52.9109H5.28751H9.16815L9.53646 52.7602Z" fill="#DEDEDE"/>
</g>
</g>
<defs>
<filter id="filter0_di_173_1576" x="-3.00563" y="-3.3904" width="70.6675" height="60.1635" filterUnits="userSpaceOnUse" color-interpolation-filters="sRGB">
<feFlood flood-opacity="0" result="BackgroundImageFix"/>
<feColorMatrix in="SourceAlpha" type="matrix" values="0 0 0 0 0 0 0 0 0 0 0 0 0 0 0 0 0 0 127 0" result="hardAlpha"/>
<feOffset/>
<feGaussianBlur stdDeviation="1.6952"/>
<feComposite in2="hardAlpha" operator="out"/>
<feColorMatrix type="matrix" values="0 0 0 0 0.168627 0 0 0 0 0.796078 0 0 0 0 0.945098 0 0 0 1 0"/>
<feBlend mode="normal" in2="BackgroundImageFix" result="effect1_dropShadow_173_1576"/>
<feBlend mode="normal" in="SourceGraphic" in2="effect1_dropShadow_173_1576" result="shape"/>
<feColorMatrix in="SourceAlpha" type="matrix" values="0 0 0 0 0 0 0 0 0 0 0 0 0 0 0 0 0 0 127 0" result="hardAlpha"/>
<feOffset/>
<feGaussianBlur stdDeviation="0.542463"/>
<feComposite in2="hardAlpha" operator="arithmetic" k2="-1" k3="1"/>
<feColorMatrix type="matrix" values="0 0 0 0 0.168627 0 0 0 0 0.796078 0 0 0 0 0.945098 0 0 0 1 0"/>
<feBlend mode="normal" in2="shape" result="effect2_innerShadow_173_1576"/>
</filter>
<clipPath id="clip0_173_1576">
<rect width="189.231" height="54.2463" fill="white" transform="translate(0.384766)"/>
</clipPath>
</defs>
</svg>
