<svg width="21" height="21" viewBox="0 0 21 21" fill="none" xmlns="http://www.w3.org/2000/svg">
<path fill-rule="evenodd" clip-rule="evenodd" d="M12.4277 16.9688C12.4385 17.275 12.3463 17.5693 12.2232 17.8099C11.9601 18.2922 11.4505 18.5596 10.8724 18.572L9.81567 18.5572C9.25335 18.5515 8.72456 18.2409 8.45011 17.7655C8.31482 17.5312 8.22957 17.2322 8.23691 16.9423C8.24778 16.7039 8.17112 16.4804 8.04742 16.2661C7.66473 15.6033 6.80012 15.3615 6.13992 15.7159C5.3865 16.1509 4.44124 15.8754 3.9967 15.1054L3.47099 14.1948C3.02258 13.4182 3.25658 12.4618 4.01 12.0268C4.65087 11.6389 4.8738 10.7693 4.49111 10.1064C4.36355 9.88548 4.20827 9.70731 4.00026 9.60423C3.74553 9.46563 3.5254 9.23564 3.39397 9.008C3.11565 8.52594 3.11098 7.91266 3.38725 7.42285L3.90671 6.50697C4.18953 6.01338 4.69281 5.70496 5.24203 5.71817C5.50042 5.71182 5.81293 5.79921 6.06884 5.95498C6.2688 6.08949 6.48906 6.12301 6.73167 6.13471C7.48837 6.14418 8.11272 5.51589 8.11827 4.75388C8.10902 3.87544 8.81736 3.18082 9.68629 3.18798L10.7184 3.19023C11.5912 3.2041 12.2998 3.90193 12.3064 4.79085C12.3282 5.5549 12.9746 6.19044 13.7287 6.21039C13.974 6.2116 14.2053 6.15838 14.3941 6.03152C14.6419 5.87061 14.9268 5.80431 15.1968 5.81804C15.746 5.83126 16.2671 6.12854 16.5624 6.60974L17.1074 7.55378C17.3934 8.04923 17.3773 8.65669 17.1141 9.13893C16.9871 9.37292 16.7911 9.59322 16.524 9.72065C16.3197 9.82073 16.158 9.99447 16.0364 10.2075C15.6767 10.8705 15.9038 11.7481 16.5585 12.1557C17.3211 12.5992 17.575 13.5685 17.1468 14.3246L16.6327 15.2195C16.2083 15.9823 15.2526 16.2484 14.4926 15.7945C13.8299 15.4183 12.9736 15.6449 12.6073 16.3116C12.4923 16.5209 12.4112 16.7284 12.4277 16.9688ZM9.18468 8.97655C8.1561 9.5704 7.82809 10.8935 8.43498 11.9447C9.04187 12.9959 10.3401 13.3533 11.3687 12.7594C12.3973 12.1656 12.7435 10.8587 12.1366 9.80758C11.5297 8.75641 10.2133 8.3827 9.18468 8.97655Z" stroke="#777E90" stroke-width="1.32575"/>
</svg>
