<svg width="25" height="25" viewBox="0 0 25 25" fill="none" xmlns="http://www.w3.org/2000/svg">
<g clip-path="url(#clip0_3064_50)">
<path d="M20.5 1.37305H4.5C2.70507 1.37305 1.25 2.82812 1.25 4.62305V20.623C1.25 22.418 2.70507 23.873 4.5 23.873H20.5C22.2949 23.873 23.75 22.418 23.75 20.623V4.62305C23.75 2.82812 22.2949 1.37305 20.5 1.37305Z" fill="#0C0927"/>
<path d="M20.5 1.37305H4.5C2.70507 1.37305 1.25 2.82812 1.25 4.62305V20.623C1.25 22.418 2.70507 23.873 4.5 23.873H20.5C22.2949 23.873 23.75 22.418 23.75 20.623V4.62305C23.75 2.82812 22.2949 1.37305 20.5 1.37305Z" stroke="#2BCBF1" stroke-width="1.5"/>
</g>
<defs>
<clipPath id="clip0_3064_50">
<rect width="25" height="25" fill="white"/>
</clipPath>
</defs>
</svg>
