<svg width="17" height="18" viewBox="0 0 17 18" fill="none" xmlns="http://www.w3.org/2000/svg">
<path fill-rule="evenodd" clip-rule="evenodd" d="M8.32553 0.546539H3.32553C1.92662 0.546539 0.728987 1.40828 0.234497 2.62987H11.4166C10.9221 1.40828 9.72444 0.546539 8.32553 0.546539ZM16.6592 12.2132H13.3258C12.4054 12.2132 11.6592 11.467 11.6592 10.5465C11.6592 9.62606 12.4054 8.87987 13.3258 8.87987H16.6592V12.2132ZM-0.0078125 3.87987H13.3255C15.1665 3.87987 16.6589 5.37226 16.6589 7.21321V7.62987H13.3255C11.7147 7.62987 10.4089 8.93571 10.4089 10.5465C10.4089 12.1574 11.7147 13.4632 13.3255 13.4632H16.6589V13.8799C16.6589 15.7208 15.1665 17.2132 13.3255 17.2132H3.32552C1.48457 17.2132 -0.0078125 15.7208 -0.0078125 13.8799V3.87987Z" fill="white"/>
</svg>
